<svg class="svg-icon" style="width: 1em; height: 1em; vertical-align: middle; fill: #ffffff; overflow: hidden;" viewBox="0 0 800 800" version="1.1" xmlns="http://www.w3.org/2000/svg">
  <circle cx="400" cy="400" r="400" fill="#ff3400" />
  <g transform="scale(0.6) translate(270, 180)">
    <path d="M195.541333 739.029333C151.594667 692.352 128 640 128 555.136c0-149.333333 104.832-283.178667 257.28-349.354667l38.101333 58.794667c-142.293333 76.970667-170.112 176.853333-181.205333 239.829333 22.912-11.861333 52.906667-16 82.304-13.269333 76.970667 7.125333 137.642667 70.314667 137.642667 148.864a149.333333 149.333333 0 0 1-149.333334 149.333333 165.162667 165.162667 0 0 1-117.248-50.304z" />
    <path d="M426.666667 739.029333C382.72 692.352 359.125333 640 359.125333 555.136c0-149.333333 104.832-283.178667 257.28-349.354667l38.101333 58.794667c-142.293333 76.970667-170.112 176.853333-181.205333 239.829333 22.912-11.861333 52.906667-16 82.304-13.269333 76.970667 7.125333 137.642667 70.314667 137.642666 148.864a149.333333 149.333333 0 0 1-149.333333 149.333333 165.162667 165.162667 0 0 1-117.248-50.304z" />
  </g>
</svg>

