<svg xmlns="http://www.w3.org/2000/svg" xmlns:xlink="http://www.w3.org/1999/xlink" width="500" zoomAndPan="magnify" viewBox="0 0 375 328.49999" height="438" preserveAspectRatio="xMidYMid meet" version="1.0"><defs><clipPath id="e6bca00768"><path d="M 21.785156 0.421875 L 352.582031 0.421875 L 352.582031 327.183594 L 21.785156 327.183594 Z M 21.785156 0.421875 " clip-rule="nonzero"/></clipPath><clipPath id="55c66e0ced"><path d="M 173.0625 327.136719 C 167.960938 327.136719 162.757812 326.867188 157.4375 326.285156 L 185.761719 326.578125 C 181.617188 326.945312 177.378906 327.136719 173.0625 327.136719 M 95.058594 304.804688 C 74.898438 292.667969 62.746094 279.617188 60.394531 277.035156 C 55.222656 271.355469 43.929688 257.996094 34.832031 238 C 22.902344 211.777344 19.445312 181.261719 23.40625 151.480469 L 23.382812 186.621094 C 23.382812 186.78125 23.386719 186.9375 23.394531 187.09375 C 23.683594 192.027344 29.898438 195.894531 37.316406 195.972656 L 95.140625 196.570312 L 95.058594 304.804688 M 346.628906 177.851562 L 346.839844 168.308594 C 346.953125 163.132812 341.914062 158.886719 335.664062 158.886719 L 327.332031 158.886719 C 331.984375 145.886719 345.578125 133.339844 352.109375 127.859375 C 352.277344 127.71875 352.417969 127.5625 352.527344 127.390625 C 352.851562 143.9375 350.796875 161.023438 346.628906 177.851562 M 352.464844 124.941406 C 352.160156 124.523438 351.699219 124.203125 351.105469 124.097656 C 345.140625 123.007812 334.066406 121.179688 322.242188 120.199219 C 331.238281 108.875 337.855469 92.492188 338.582031 67.234375 C 347.3125 84.515625 351.765625 104.273438 352.464844 124.941406 M 264.871094 29.105469 C 264.582031 29.085938 264.289062 29.074219 263.988281 29.074219 L 101.125 29.074219 C 132.945312 9.425781 170.304688 0.421875 205.386719 0.421875 C 219.738281 0.421875 233.707031 1.929688 246.761719 4.828125 C 256.082031 6.898438 270.230469 10.042969 285.195312 16.871094 C 278.140625 20.300781 271.195312 24.347656 264.871094 29.105469 " clip-rule="nonzero"/></clipPath><clipPath id="167f0eeaa3"><path d="M 173.0625 327.136719 C 167.960938 327.136719 162.757812 326.867188 157.4375 326.285156 L 185.761719 326.578125 C 181.617188 326.945312 177.378906 327.136719 173.0625 327.136719 M 95.058594 304.804688 C 74.898438 292.667969 62.746094 279.617188 60.394531 277.035156 C 55.222656 271.355469 43.929688 257.996094 34.832031 238 C 22.902344 211.777344 19.445312 181.261719 23.40625 151.476562 L 23.382812 186.621094 C 23.382812 186.78125 23.386719 186.9375 23.394531 187.09375 C 23.683594 192.027344 29.898438 195.894531 37.316406 195.972656 L 95.140625 196.570312 L 95.058594 304.804688 M 346.628906 177.851562 L 346.839844 168.308594 C 346.949219 163.132812 341.914062 158.886719 335.664062 158.886719 L 327.332031 158.886719 C 331.984375 145.886719 345.574219 133.339844 352.109375 127.859375 C 352.277344 127.71875 352.417969 127.558594 352.53125 127.390625 C 352.851562 143.9375 350.796875 161.023438 346.628906 177.851562 M 352.464844 124.941406 C 352.160156 124.523438 351.699219 124.203125 351.109375 124.097656 C 345.140625 123.007812 334.066406 121.179688 322.242188 120.203125 C 331.238281 108.875 337.855469 92.492188 338.585938 67.234375 C 347.3125 84.515625 351.765625 104.273438 352.464844 124.941406 M 264.871094 29.101562 C 264.582031 29.085938 264.289062 29.074219 263.992188 29.074219 L 101.125 29.074219 C 132.945312 9.425781 170.304688 0.421875 205.386719 0.421875 C 219.738281 0.421875 233.707031 1.929688 246.761719 4.828125 C 256.082031 6.898438 270.230469 10.042969 285.191406 16.871094 C 278.144531 20.300781 271.195312 24.34375 264.871094 29.101562 " clip-rule="nonzero"/></clipPath><clipPath id="591f6212e4"><path d="M 242.707031 -159 L -131.710938 108.355469 L 129.589844 486.558594 L 504.007812 219.203125 Z M 242.707031 -159 " clip-rule="nonzero"/></clipPath><linearGradient x1="0.138274" gradientTransform="matrix(202.104117, 292.520365, -289.081838, 206.421915, 33.298964, -68.203258)" y1="0" x2="1.42692" gradientUnits="userSpaceOnUse" y2="0" id="4a56a1037e"><stop stop-opacity="1" stop-color="rgb(86.299133%, 89.7995%, 99.598694%)" offset="0"/><stop stop-opacity="1" stop-color="rgb(86.320496%, 89.7995%, 99.598694%)" offset="0.03125"/><stop stop-opacity="1" stop-color="rgb(86.53717%, 89.816284%, 99.598694%)" offset="0.0625"/><stop stop-opacity="1" stop-color="rgb(86.915588%, 90.016174%, 99.598694%)" offset="0.09375"/><stop stop-opacity="1" stop-color="rgb(87.117004%, 90.21759%, 99.598694%)" offset="0.125"/><stop stop-opacity="1" stop-color="rgb(87.31842%, 90.41748%, 99.598694%)" offset="0.15625"/><stop stop-opacity="1" stop-color="rgb(87.509155%, 90.612793%, 99.598694%)" offset="0.1875"/><stop stop-opacity="1" stop-color="rgb(87.67395%, 90.812683%, 99.598694%)" offset="0.21875"/><stop stop-opacity="1" stop-color="rgb(88.014221%, 91.014099%, 99.598694%)" offset="0.25"/><stop stop-opacity="1" stop-color="rgb(88.215637%, 91.213989%, 99.581909%)" offset="0.28125"/><stop stop-opacity="1" stop-color="rgb(88.415527%, 91.409302%, 99.382019%)" offset="0.3125"/><stop stop-opacity="1" stop-color="rgb(88.61084%, 91.610718%, 99.198914%)" offset="0.34375"/><stop stop-opacity="1" stop-color="rgb(88.723755%, 91.799927%, 99.198914%)" offset="0.359375"/><stop stop-opacity="1" stop-color="rgb(88.925171%, 91.812134%, 99.198914%)" offset="0.375"/><stop stop-opacity="1" stop-color="rgb(89.221191%, 92.018127%, 99.198914%)" offset="0.4375"/><stop stop-opacity="1" stop-color="rgb(89.607239%, 92.355347%, 99.198914%)" offset="0.46875"/><stop stop-opacity="1" stop-color="rgb(89.810181%, 92.50946%, 99.198914%)" offset="0.5"/><stop stop-opacity="1" stop-color="rgb(89.920044%, 92.62085%, 99.198914%)" offset="0.515625"/><stop stop-opacity="1" stop-color="rgb(90.119934%, 92.810059%, 99.198914%)" offset="0.53125"/><stop stop-opacity="1" stop-color="rgb(90.409851%, 92.904663%, 99.198914%)" offset="0.5625"/><stop stop-opacity="1" stop-color="rgb(90.605164%, 93.104553%, 99.198914%)" offset="0.59375"/><stop stop-opacity="1" stop-color="rgb(90.808105%, 93.301392%, 99.198914%)" offset="0.625"/><stop stop-opacity="1" stop-color="rgb(91.1026%, 93.4021%, 99.198914%)" offset="0.6875"/><stop stop-opacity="1" stop-color="rgb(91.299438%, 93.600464%, 99.198914%)" offset="0.75"/><stop stop-opacity="1" stop-color="rgb(91.398621%, 93.699646%, 99.198914%)" offset="1"/></linearGradient><clipPath id="6350fce06e"><path d="M 36.890625 229.140625 L 80.449219 229.140625 L 80.449219 295.59375 L 36.890625 295.59375 Z M 36.890625 229.140625 " clip-rule="nonzero"/></clipPath><clipPath id="6d74f86e0b"><path d="M 78.457031 295.417969 C 52.03125 284.738281 37.28125 255.039062 36.976562 234.914062 L 45.304688 229.21875 C 52.410156 248.398438 58.753906 261.617188 78.03125 268.601562 C 79.078125 268.980469 79.789062 269.957031 79.816406 271.066406 L 80.410156 294.058594 C 80.4375 295.078125 79.40625 295.800781 78.457031 295.417969 Z M 78.457031 295.417969 " clip-rule="nonzero"/></clipPath><clipPath id="c6f0df83a3"><path d="M 78.457031 295.417969 C 52.03125 284.738281 37.28125 255.039062 36.976562 234.914062 L 45.304688 229.21875 C 52.410156 248.398438 58.753906 261.617188 78.03125 268.601562 C 79.078125 268.980469 79.789062 269.957031 79.816406 271.066406 L 80.410156 294.058594 C 80.4375 295.078125 79.40625 295.800781 78.457031 295.417969 " clip-rule="nonzero"/></clipPath><clipPath id="7f578b9c27"><path d="M 30 215.101562 L 53.402344 215.101562 L 53.402344 242.128906 L 30 242.128906 Z M 30 215.101562 " clip-rule="nonzero"/></clipPath><clipPath id="3d5dfe5248"><path d="M 31.441406 242.007812 C 30.597656 242.292969 29.800781 241.476562 30.113281 240.640625 L 39.402344 215.644531 C 39.699219 215.097656 40.46875 215.054688 40.828125 215.5625 L 53.125 232.964844 C 53.609375 233.648438 53.296875 234.597656 52.507812 234.867188 Z M 31.441406 242.007812 " clip-rule="nonzero"/></clipPath><clipPath id="cfceb260a4"><path d="M 31.441406 242.007812 C 30.597656 242.292969 29.800781 241.476562 30.113281 240.640625 L 39.402344 215.644531 C 39.699219 215.097656 40.46875 215.054688 40.828125 215.5625 L 53.125 232.964844 C 53.609375 233.648438 53.296875 234.597656 52.507812 234.867188 L 31.441406 242.007812 " clip-rule="nonzero"/></clipPath><clipPath id="aa59c603ca"><path d="M 281.621094 62 L 322 62 L 322 130.632812 L 281.621094 130.632812 Z M 281.621094 62 " clip-rule="nonzero"/></clipPath><clipPath id="64468271fe"><path d="M 284.800781 62.203125 C 310.394531 74.738281 322.984375 105.414062 321.851562 125.507812 L 313.140625 130.597656 C 307.421875 110.960938 302.039062 97.320312 283.308594 88.980469 C 282.292969 88.527344 281.652344 87.503906 281.703125 86.394531 L 282.753906 63.421875 C 282.800781 62.398438 283.878906 61.753906 284.800781 62.203125 Z M 284.800781 62.203125 " clip-rule="nonzero"/></clipPath><clipPath id="db9e527e29"><path d="M 284.800781 62.203125 C 310.398438 74.738281 322.984375 105.414062 321.851562 125.507812 L 313.140625 130.597656 C 307.421875 110.957031 302.039062 97.320312 283.308594 88.980469 C 282.292969 88.527344 281.65625 87.503906 281.703125 86.394531 L 282.753906 63.421875 C 282.800781 62.398438 283.878906 61.753906 284.800781 62.203125 " clip-rule="nonzero"/></clipPath><clipPath id="4dfddc5dd5"><path d="M 305.390625 117.296875 L 334.78125 117.296875 L 334.78125 149.46875 L 305.390625 149.46875 Z M 305.390625 117.296875 " clip-rule="nonzero"/></clipPath><clipPath id="893eb526a3"><path d="M 334.511719 119.113281 L 325.878906 147.640625 C 325.289062 149.597656 322.707031 150.027344 321.511719 148.367188 L 305.605469 126.300781 C 305.175781 125.589844 305.550781 124.660156 306.359375 124.449219 L 333.28125 117.417969 C 334.273438 117.160156 335.066406 118.253906 334.511719 119.113281 Z M 334.511719 119.113281 " clip-rule="nonzero"/></clipPath><clipPath id="5043ad6063"><path d="M 334.511719 119.113281 L 325.878906 147.636719 C 325.285156 149.59375 322.707031 150.027344 321.511719 148.367188 L 305.605469 126.300781 C 305.175781 125.585938 305.550781 124.660156 306.355469 124.449219 L 333.28125 117.417969 C 334.269531 117.160156 335.066406 118.253906 334.511719 119.113281 " clip-rule="nonzero"/></clipPath><clipPath id="2cd0b0fc62"><path d="M 23.308594 29 L 275.179688 29 L 275.179688 196.617188 L 23.308594 196.617188 Z M 23.308594 29 " clip-rule="nonzero"/></clipPath><clipPath id="5af2664ba1"><path d="M 95.140625 196.570312 L 37.316406 195.972656 C 29.898438 195.894531 23.683594 192.027344 23.394531 187.09375 C 23.386719 186.9375 23.382812 186.78125 23.382812 186.621094 L 23.40625 151.480469 L 23.488281 38.324219 C 23.492188 33.214844 28.496094 29.074219 34.664062 29.074219 L 263.988281 29.074219 C 264.289062 29.074219 264.582031 29.085938 264.871094 29.105469 C 270.710938 29.480469 275.273438 33.566406 275.167969 38.5 L 274.296875 78.199219 L 274.082031 88.101562 L 273.066406 134.34375 L 272.53125 158.886719 L 268.074219 158.886719 L 270.441406 51.835938 L 272.589844 51.835938 L 272.824219 41.527344 C 272.933594 36.609375 268.050781 32.6875 261.992188 32.6875 L 39.722656 32.6875 C 33.742188 32.6875 28.890625 36.507812 28.890625 41.363281 L 28.882812 51.835938 L 28.984375 51.835938 L 28.886719 182.753906 C 28.882812 187.570312 33.609375 191.496094 39.484375 191.554688 L 95.140625 192.125 L 95.140625 196.570312 " clip-rule="nonzero"/></clipPath><clipPath id="32ac183ad5"><path d="M 95.140625 196.570312 L 37.316406 195.972656 C 29.898438 195.894531 23.683594 192.027344 23.394531 187.09375 C 23.386719 186.9375 23.378906 186.78125 23.382812 186.621094 L 23.40625 151.480469 L 23.488281 38.328125 C 23.492188 33.214844 28.496094 29.074219 34.664062 29.074219 L 263.988281 29.074219 C 264.289062 29.074219 264.582031 29.085938 264.871094 29.105469 C 270.710938 29.480469 275.273438 33.566406 275.167969 38.5 L 274.296875 78.199219 L 274.082031 88.101562 L 273.066406 134.34375 L 272.53125 158.886719 L 268.074219 158.886719 L 270.445312 51.835938 L 272.589844 51.835938 L 272.824219 41.527344 C 272.933594 36.609375 268.050781 32.6875 261.988281 32.6875 L 39.722656 32.6875 C 33.742188 32.6875 28.890625 36.507812 28.890625 41.363281 L 28.882812 51.835938 L 28.980469 51.835938 L 28.886719 182.753906 C 28.882812 187.570312 33.609375 191.496094 39.488281 191.554688 L 95.140625 192.128906 L 95.140625 196.570312 " clip-rule="nonzero"/></clipPath><clipPath id="feb2a2098a"><path d="M 305.242188 34.609375 L 31.703125 -15.910156 L -6.585938 191.039062 L 266.953125 241.558594 Z M 305.242188 34.609375 " clip-rule="nonzero"/></clipPath><linearGradient x1="0.0618716" gradientTransform="matrix(-49.706697, 268.663337, -268.900456, -49.662861, 169.851782, -7.567551)" y1="0" x2="0.832091" gradientUnits="userSpaceOnUse" y2="0" id="0190166a84"><stop stop-opacity="1" stop-color="rgb(88.198853%, 28.599548%, 24.699402%)" offset="0"/><stop stop-opacity="1" stop-color="rgb(88.298035%, 28.599548%, 24.699402%)" offset="0.015625"/><stop stop-opacity="1" stop-color="rgb(88.497925%, 28.599548%, 24.699402%)" offset="0.03125"/><stop stop-opacity="1" stop-color="rgb(88.598633%, 28.599548%, 24.89624%)" offset="0.0625"/><stop stop-opacity="1" stop-color="rgb(88.598633%, 28.695679%, 25.192261%)" offset="0.078125"/><stop stop-opacity="1" stop-color="rgb(88.598633%, 28.892517%, 25.393677%)" offset="0.09375"/><stop stop-opacity="1" stop-color="rgb(88.598633%, 29.095459%, 25.495911%)" offset="0.109375"/><stop stop-opacity="1" stop-color="rgb(88.598633%, 29.296875%, 25.498962%)" offset="0.125"/><stop stop-opacity="1" stop-color="rgb(88.598633%, 29.397583%, 25.598145%)" offset="0.140625"/><stop stop-opacity="1" stop-color="rgb(88.598633%, 29.399109%, 25.799561%)" offset="0.15625"/><stop stop-opacity="1" stop-color="rgb(88.697815%, 29.498291%, 25.997925%)" offset="0.171875"/><stop stop-opacity="1" stop-color="rgb(88.893127%, 29.693604%, 26.193237%)" offset="0.1875"/><stop stop-opacity="1" stop-color="rgb(88.995361%, 29.794312%, 26.293945%)" offset="0.21875"/><stop stop-opacity="1" stop-color="rgb(88.999939%, 29.896545%, 26.397705%)" offset="0.234375"/><stop stop-opacity="1" stop-color="rgb(88.999939%, 30.096436%, 26.597595%)" offset="0.25"/><stop stop-opacity="1" stop-color="rgb(88.999939%, 30.299377%, 26.799011%)" offset="0.265625"/><stop stop-opacity="1" stop-color="rgb(88.999939%, 30.499268%, 26.998901%)" offset="0.28125"/><stop stop-opacity="1" stop-color="rgb(88.999939%, 30.599976%, 27.099609%)" offset="0.3125"/><stop stop-opacity="1" stop-color="rgb(89.096069%, 30.696106%, 27.19574%)" offset="0.328125"/><stop stop-opacity="1" stop-color="rgb(89.294434%, 30.89447%, 27.394104%)" offset="0.34375"/><stop stop-opacity="1" stop-color="rgb(89.396667%, 30.996704%, 27.645874%)" offset="0.375"/><stop stop-opacity="1" stop-color="rgb(89.399719%, 31.098938%, 27.89917%)" offset="0.390625"/><stop stop-opacity="1" stop-color="rgb(89.399719%, 31.300354%, 28.09906%)" offset="0.40625"/><stop stop-opacity="1" stop-color="rgb(89.399719%, 31.498718%, 28.199768%)" offset="0.421875"/><stop stop-opacity="1" stop-color="rgb(89.399719%, 31.694031%, 28.199768%)" offset="0.4375"/><stop stop-opacity="1" stop-color="rgb(89.399719%, 31.796265%, 28.295898%)" offset="0.453125"/><stop stop-opacity="1" stop-color="rgb(89.399719%, 31.799316%, 28.494263%)" offset="0.46875"/><stop stop-opacity="1" stop-color="rgb(89.399719%, 31.898499%, 28.695679%)" offset="0.484375"/><stop stop-opacity="1" stop-color="rgb(89.399719%, 32.098389%, 28.898621%)" offset="0.5"/><stop stop-opacity="1" stop-color="rgb(89.500427%, 32.199097%, 28.999329%)" offset="0.515625"/><stop stop-opacity="1" stop-color="rgb(89.700317%, 32.200623%, 29.000854%)" offset="0.53125"/><stop stop-opacity="1" stop-color="rgb(89.7995%, 32.348633%, 29.197693%)" offset="0.5625"/><stop stop-opacity="1" stop-color="rgb(89.7995%, 32.594299%, 29.493713%)" offset="0.578125"/><stop stop-opacity="1" stop-color="rgb(89.7995%, 32.795715%, 29.695129%)" offset="0.59375"/><stop stop-opacity="1" stop-color="rgb(89.7995%, 32.897949%, 29.797363%)" offset="0.625"/><stop stop-opacity="1" stop-color="rgb(89.7995%, 33.000183%, 29.899597%)" offset="0.640625"/><stop stop-opacity="1" stop-color="rgb(89.801025%, 33.200073%, 30.101013%)" offset="0.65625"/><stop stop-opacity="1" stop-color="rgb(89.997864%, 33.299255%, 30.39856%)" offset="0.6875"/><stop stop-opacity="1" stop-color="rgb(90.196228%, 33.396912%, 30.596924%)" offset="0.703125"/><stop stop-opacity="1" stop-color="rgb(90.19928%, 33.595276%, 30.599976%)" offset="0.71875"/><stop stop-opacity="1" stop-color="rgb(90.19928%, 33.796692%, 30.699158%)" offset="0.734375"/><stop stop-opacity="1" stop-color="rgb(90.19928%, 33.998108%, 30.899048%)" offset="0.75"/><stop stop-opacity="1" stop-color="rgb(90.19928%, 34.098816%, 31.100464%)" offset="0.765625"/><stop stop-opacity="1" stop-color="rgb(90.19928%, 34.100342%, 31.30188%)" offset="0.78125"/><stop stop-opacity="1" stop-color="rgb(90.19928%, 34.298706%, 31.5979%)" offset="0.8125"/><stop stop-opacity="1" stop-color="rgb(90.296936%, 34.495544%, 31.796265%)" offset="0.828125"/><stop stop-opacity="1" stop-color="rgb(90.4953%, 34.498596%, 31.799316%)" offset="0.84375"/><stop stop-opacity="1" stop-color="rgb(90.597534%, 34.597778%, 31.898499%)" offset="0.859375"/><stop stop-opacity="1" stop-color="rgb(90.59906%, 34.799194%, 32.099915%)" offset="0.875"/><stop stop-opacity="1" stop-color="rgb(90.59906%, 35.00061%, 32.275391%)" offset="0.890625"/><stop stop-opacity="1" stop-color="rgb(90.59906%, 35.2005%, 32.424927%)" offset="0.90625"/><stop stop-opacity="1" stop-color="rgb(90.59906%, 35.299683%, 32.499695%)" offset="0.9375"/><stop stop-opacity="1" stop-color="rgb(90.59906%, 35.397339%, 32.597351%)" offset="0.953125"/><stop stop-opacity="1" stop-color="rgb(90.59906%, 35.595703%, 32.795715%)" offset="0.96875"/><stop stop-opacity="1" stop-color="rgb(90.698242%, 35.697937%, 32.998657%)" offset="0.984375"/><stop stop-opacity="1" stop-color="rgb(90.898132%, 35.699463%, 33.198547%)" offset="1"/></linearGradient><clipPath id="37514dd8a1"><path d="M 28.8125 51.78125 L 270.496094 51.78125 L 270.496094 192.171875 L 28.8125 192.171875 Z M 28.8125 51.78125 " clip-rule="nonzero"/></clipPath><clipPath id="cc1628ae92"><path d="M 95.140625 192.125 L 39.484375 191.554688 C 33.609375 191.496094 28.882812 187.570312 28.886719 182.753906 L 28.984375 51.835938 L 270.441406 51.835938 L 268.074219 158.886719 L 259.082031 158.886719 L 259.125 153.988281 C 259.136719 152.480469 257.125 151.238281 254.613281 151.199219 L 195.269531 150.328125 C 193.277344 150.339844 191.679688 151.304688 191.671875 152.503906 L 191.617188 158.886719 L 183.414062 158.886719 L 183.46875 152.882812 C 183.480469 151.375 181.46875 150.128906 178.953125 150.09375 L 119.613281 149.222656 C 117.621094 149.234375 116.023438 150.199219 116.011719 151.398438 L 115.953125 158.886719 L 106.984375 158.886719 L 107.039062 152.632812 C 107.054688 151.121094 105.042969 149.878906 102.527344 149.839844 L 43.1875 148.96875 C 41.195312 148.984375 39.597656 149.949219 39.585938 151.144531 L 39.285156 187.265625 C 39.277344 188.484375 40.914062 189.484375 42.945312 189.503906 L 95.144531 189.9375 L 95.140625 192.125 M 45.929688 67.507812 C 42.703125 67.507812 40.078125 70.179688 40.078125 73.488281 L 40.078125 139.113281 C 40.078125 142.417969 42.699219 145.09375 45.929688 145.09375 L 169.570312 144.839844 C 174.4375 144.828125 178.378906 140.882812 178.378906 136.019531 L 178.378906 75.5 C 178.378906 72.234375 175.816406 69.570312 172.621094 69.519531 L 46.019531 67.507812 C 45.988281 67.507812 45.960938 67.507812 45.929688 67.507812 M 251.078125 67.507812 L 191.4375 67.726562 C 188.402344 67.734375 185.953125 69.394531 185.953125 71.433594 L 185.953125 140.085938 C 185.953125 142.515625 188.976562 144.484375 192.707031 144.484375 L 250.785156 144.484375 C 254.515625 144.484375 257.539062 142.515625 257.539062 140.085938 L 257.539062 71.902344 C 257.539062 69.546875 254.691406 67.609375 251.078125 67.507812 " clip-rule="nonzero"/></clipPath><clipPath id="044d2cb8a5"><path d="M 95.144531 192.125 L 39.488281 191.554688 C 33.609375 191.496094 28.882812 187.570312 28.886719 182.753906 L 28.984375 51.835938 L 270.445312 51.835938 L 268.074219 158.886719 L 259.082031 158.886719 L 259.125 153.988281 C 259.136719 152.480469 257.125 151.238281 254.613281 151.199219 L 195.273438 150.328125 C 193.277344 150.339844 191.683594 151.304688 191.671875 152.503906 L 191.617188 158.886719 L 183.414062 158.886719 L 183.46875 152.882812 C 183.480469 151.375 181.46875 150.128906 178.957031 150.09375 L 119.613281 149.222656 C 117.621094 149.238281 116.023438 150.199219 116.015625 151.398438 L 115.953125 158.886719 L 106.984375 158.886719 L 107.039062 152.632812 C 107.054688 151.121094 105.042969 149.875 102.527344 149.839844 L 43.1875 148.96875 C 41.195312 148.984375 39.597656 149.949219 39.585938 151.144531 L 39.285156 187.265625 C 39.277344 188.484375 40.914062 189.484375 42.945312 189.5 L 95.144531 189.9375 L 95.144531 192.125 M 45.929688 67.507812 C 42.703125 67.507812 40.078125 70.179688 40.078125 73.488281 L 40.078125 139.113281 C 40.078125 142.414062 42.699219 145.09375 45.929688 145.09375 L 169.570312 144.839844 C 174.4375 144.828125 178.382812 140.882812 178.382812 136.019531 L 178.382812 75.5 C 178.382812 72.230469 175.816406 69.570312 172.621094 69.519531 L 46.019531 67.507812 C 45.988281 67.507812 45.960938 67.507812 45.929688 67.507812 M 251.082031 67.507812 L 191.4375 67.726562 C 188.402344 67.734375 185.953125 69.394531 185.953125 71.433594 L 185.953125 140.085938 C 185.953125 142.515625 188.976562 144.484375 192.707031 144.484375 L 250.785156 144.484375 C 254.515625 144.484375 257.539062 142.515625 257.539062 140.085938 L 257.539062 71.902344 C 257.539062 69.546875 254.691406 67.609375 251.082031 67.507812 " clip-rule="nonzero"/></clipPath><clipPath id="93570e90f3"><path d="M 282.5625 52.890625 L 30.695312 31.007812 L 16.765625 191.074219 L 268.628906 212.957031 Z M 282.5625 52.890625 " clip-rule="nonzero"/></clipPath><linearGradient x1="0.0197464" gradientTransform="matrix(-22.128521, 254.240191, -254.464589, -22.109006, 154.886631, 36.737452)" y1="0" x2="0.649338" gradientUnits="userSpaceOnUse" y2="0" id="8455b55be9"><stop stop-opacity="1" stop-color="rgb(99.598694%, 72.898865%, 72.499084%)" offset="0"/><stop stop-opacity="1" stop-color="rgb(99.598694%, 72.705078%, 72.3526%)" offset="0.0625"/><stop stop-opacity="1" stop-color="rgb(99.598694%, 72.433472%, 72.108459%)" offset="0.078125"/><stop stop-opacity="1" stop-color="rgb(99.598694%, 72.280884%, 71.908569%)" offset="0.09375"/><stop stop-opacity="1" stop-color="rgb(99.598694%, 72.105408%, 71.707153%)" offset="0.109375"/><stop stop-opacity="1" stop-color="rgb(99.598694%, 71.905518%, 71.505737%)" offset="0.125"/><stop stop-opacity="1" stop-color="rgb(99.598694%, 71.801758%, 71.304321%)" offset="0.140625"/><stop stop-opacity="1" stop-color="rgb(99.598694%, 71.798706%, 71.102905%)" offset="0.15625"/><stop stop-opacity="1" stop-color="rgb(99.598694%, 71.604919%, 70.806885%)" offset="0.1875"/><stop stop-opacity="1" stop-color="rgb(99.598694%, 71.311951%, 70.510864%)" offset="0.203125"/><stop stop-opacity="1" stop-color="rgb(99.598694%, 71.110535%, 70.309448%)" offset="0.21875"/><stop stop-opacity="1" stop-color="rgb(99.598694%, 70.909119%, 70.204163%)" offset="0.234375"/><stop stop-opacity="1" stop-color="rgb(99.598694%, 70.707703%, 70.199585%)" offset="0.25"/><stop stop-opacity="1" stop-color="rgb(99.598694%, 70.506287%, 70.101929%)" offset="0.265625"/><stop stop-opacity="1" stop-color="rgb(99.598694%, 70.304871%, 69.903564%)" offset="0.28125"/><stop stop-opacity="1" stop-color="rgb(99.598694%, 70.201111%, 69.607544%)" offset="0.3125"/><stop stop-opacity="1" stop-color="rgb(99.598694%, 70.10498%, 69.313049%)" offset="0.328125"/><stop stop-opacity="1" stop-color="rgb(99.598694%, 69.911194%, 69.111633%)" offset="0.34375"/><stop stop-opacity="1" stop-color="rgb(99.598694%, 69.709778%, 68.910217%)" offset="0.359375"/><stop stop-opacity="1" stop-color="rgb(99.598694%, 69.508362%, 68.708801%)" offset="0.375"/><stop stop-opacity="1" stop-color="rgb(99.598694%, 69.306946%, 68.507385%)" offset="0.390625"/><stop stop-opacity="1" stop-color="rgb(99.598694%, 69.10553%, 68.305969%)" offset="0.40625"/><stop stop-opacity="1" stop-color="rgb(99.598694%, 68.809509%, 68.009949%)" offset="0.4375"/><stop stop-opacity="1" stop-color="rgb(99.598694%, 68.513489%, 67.807007%)" offset="0.453125"/><stop stop-opacity="1" stop-color="rgb(99.598694%, 68.312073%, 67.799377%)" offset="0.46875"/><stop stop-opacity="1" stop-color="rgb(99.598694%, 68.205261%, 67.652893%)" offset="0.5"/><stop stop-opacity="1" stop-color="rgb(99.598694%, 68.103027%, 67.405701%)" offset="0.515625"/><stop stop-opacity="1" stop-color="rgb(99.598694%, 67.906189%, 67.205811%)" offset="0.53125"/><stop stop-opacity="1" stop-color="rgb(99.598694%, 67.657471%, 66.90979%)" offset="0.5625"/><stop stop-opacity="1" stop-color="rgb(99.598694%, 67.411804%, 66.61377%)" offset="0.578125"/><stop stop-opacity="1" stop-color="rgb(99.598694%, 67.21344%, 66.413879%)" offset="0.59375"/><stop stop-opacity="1" stop-color="rgb(99.598694%, 67.012024%, 66.212463%)" offset="0.609375"/><stop stop-opacity="1" stop-color="rgb(99.598694%, 66.810608%, 66.011047%)" offset="0.625"/><stop stop-opacity="1" stop-color="rgb(99.598694%, 66.703796%, 65.809631%)" offset="0.640625"/><stop stop-opacity="1" stop-color="rgb(99.598694%, 66.699219%, 65.606689%)" offset="0.65625"/><stop stop-opacity="1" stop-color="rgb(99.598694%, 66.506958%, 65.50293%)" offset="0.6875"/><stop stop-opacity="1" stop-color="rgb(99.598694%, 66.215515%, 65.406799%)" offset="0.703125"/><stop stop-opacity="1" stop-color="rgb(99.598694%, 66.014099%, 65.214539%)" offset="0.71875"/><stop stop-opacity="1" stop-color="rgb(99.598694%, 65.812683%, 65.013123%)" offset="0.734375"/><stop stop-opacity="1" stop-color="rgb(99.598694%, 65.611267%, 64.811707%)" offset="0.75"/><stop stop-opacity="1" stop-color="rgb(99.598694%, 65.409851%, 64.610291%)" offset="0.765625"/><stop stop-opacity="1" stop-color="rgb(99.598694%, 65.208435%, 64.408875%)" offset="0.78125"/><stop stop-opacity="1" stop-color="rgb(99.789429%, 65.103149%, 64.112854%)" offset="0.8125"/><stop stop-opacity="1" stop-color="rgb(99.990845%, 65.007019%, 63.816833%)" offset="0.828125"/><stop stop-opacity="1" stop-color="rgb(100%, 64.814758%, 63.615417%)" offset="0.84375"/><stop stop-opacity="1" stop-color="rgb(100%, 64.613342%, 63.414001%)" offset="0.859375"/><stop stop-opacity="1" stop-color="rgb(100%, 64.411926%, 63.212585%)" offset="0.875"/><stop stop-opacity="1" stop-color="rgb(100%, 64.21051%, 63.011169%)" offset="0.890625"/><stop stop-opacity="1" stop-color="rgb(100%, 64.009094%, 62.809753%)" offset="0.90625"/><stop stop-opacity="1" stop-color="rgb(100%, 63.713074%, 62.704468%)" offset="0.9375"/><stop stop-opacity="1" stop-color="rgb(100%, 63.508606%, 62.554932%)" offset="0.96875"/><stop stop-opacity="1" stop-color="rgb(100%, 63.406372%, 62.312317%)" offset="0.984375"/><stop stop-opacity="1" stop-color="rgb(100%, 63.214111%, 62.113953%)" offset="1"/></linearGradient><clipPath id="f70e9a705e"><path d="M 28.8125 32.59375 L 272.839844 32.59375 L 272.839844 51.898438 L 28.8125 51.898438 Z M 28.8125 32.59375 " clip-rule="nonzero"/></clipPath><clipPath id="66e40b774c"><path d="M 272.589844 51.835938 L 28.882812 51.835938 L 28.890625 41.363281 C 28.890625 36.507812 33.742188 32.6875 39.722656 32.6875 L 261.992188 32.6875 C 268.050781 32.6875 272.933594 36.609375 272.824219 41.527344 L 272.589844 51.835938 M 111.390625 47.183594 L 206.109375 47.183594 C 206.359375 47.25 206.597656 47.285156 206.824219 47.285156 C 208.039062 47.285156 208.9375 46.367188 208.9375 45.277344 L 208.9375 41.804688 C 208.9375 40.511719 207.671875 39.460938 206.109375 39.460938 L 111.390625 39.460938 C 109.832031 39.460938 108.5625 40.511719 108.5625 41.804688 L 108.5625 45.277344 C 108.5625 46.367188 109.460938 47.285156 110.675781 47.285156 C 110.90625 47.285156 111.144531 47.25 111.390625 47.183594 " clip-rule="nonzero"/></clipPath><clipPath id="7d06346af7"><path d="M 272.589844 51.835938 L 28.882812 51.835938 L 28.890625 41.363281 C 28.890625 36.507812 33.742188 32.6875 39.722656 32.6875 L 261.988281 32.6875 C 268.050781 32.6875 272.933594 36.609375 272.824219 41.527344 L 272.589844 51.835938 M 111.390625 47.179688 L 206.109375 47.179688 C 206.355469 47.25 206.597656 47.285156 206.824219 47.285156 C 208.039062 47.285156 208.9375 46.367188 208.9375 45.277344 L 208.9375 41.804688 C 208.9375 40.511719 207.671875 39.460938 206.109375 39.460938 L 111.390625 39.460938 C 109.832031 39.460938 108.5625 40.511719 108.5625 41.804688 L 108.5625 45.277344 C 108.5625 46.367188 109.460938 47.285156 110.675781 47.285156 C 110.90625 47.285156 111.144531 47.25 111.390625 47.179688 " clip-rule="nonzero"/></clipPath><clipPath id="c496a41302"><path d="M 275.011719 32.917969 L 31.792969 6.210938 L 26.800781 51.605469 L 270.019531 78.3125 Z M 275.011719 32.917969 " clip-rule="nonzero"/></clipPath><linearGradient x1="-0.140559" gradientTransform="matrix(-11.977638, 108.901677, -108.997806, -11.967075, 152.004741, 34.913199)" y1="0" x2="0.276188" gradientUnits="userSpaceOnUse" y2="0" id="1a065806e1"><stop stop-opacity="1" stop-color="rgb(100%, 57.299805%, 55.699158%)" offset="0"/><stop stop-opacity="1" stop-color="rgb(100%, 57.299805%, 55.699158%)" offset="0.25"/><stop stop-opacity="1" stop-color="rgb(100%, 57.299805%, 55.699158%)" offset="0.375"/><stop stop-opacity="1" stop-color="rgb(100%, 57.107544%, 55.506897%)" offset="0.40625"/><stop stop-opacity="1" stop-color="rgb(100%, 56.907654%, 55.12085%)" offset="0.4375"/><stop stop-opacity="1" stop-color="rgb(100%, 56.710815%, 54.911804%)" offset="0.46875"/><stop stop-opacity="1" stop-color="rgb(100%, 56.510925%, 54.710388%)" offset="0.5"/><stop stop-opacity="1" stop-color="rgb(100%, 56.307983%, 54.510498%)" offset="0.53125"/><stop stop-opacity="1" stop-color="rgb(100%, 56.108093%, 54.312134%)" offset="0.5625"/><stop stop-opacity="1" stop-color="rgb(100%, 56.098938%, 54.112244%)" offset="0.59375"/><stop stop-opacity="1" stop-color="rgb(100%, 55.909729%, 53.909302%)" offset="0.625"/><stop stop-opacity="1" stop-color="rgb(100%, 55.709839%, 53.620911%)" offset="0.640625"/><stop stop-opacity="1" stop-color="rgb(100%, 55.699158%, 53.419495%)" offset="0.65625"/><stop stop-opacity="1" stop-color="rgb(100%, 55.513%, 53.308105%)" offset="0.6875"/><stop stop-opacity="1" stop-color="rgb(100%, 55.31311%, 53.111267%)" offset="0.71875"/><stop stop-opacity="1" stop-color="rgb(100%, 55.110168%, 52.911377%)" offset="0.75"/><stop stop-opacity="1" stop-color="rgb(100%, 54.910278%, 52.708435%)" offset="0.78125"/><stop stop-opacity="1" stop-color="rgb(100%, 54.71344%, 52.508545%)" offset="0.8125"/><stop stop-opacity="1" stop-color="rgb(100%, 54.51355%, 52.359009%)" offset="0.84375"/><stop stop-opacity="1" stop-color="rgb(100%, 54.499817%, 52.122498%)" offset="0.859375"/><stop stop-opacity="1" stop-color="rgb(100%, 54.499817%, 51.924133%)" offset="0.875"/><stop stop-opacity="1" stop-color="rgb(100%, 54.309082%, 51.811218%)" offset="0.90625"/><stop stop-opacity="1" stop-color="rgb(100%, 54.109192%, 51.61438%)" offset="0.9375"/><stop stop-opacity="1" stop-color="rgb(100%, 53.912354%, 51.41449%)" offset="0.96875"/><stop stop-opacity="1" stop-color="rgb(100%, 53.712463%, 51.211548%)" offset="1"/></linearGradient><clipPath id="49146942f1"><path d="M 108.554688 39.378906 L 209 39.378906 L 209 47.335938 L 108.554688 47.335938 Z M 108.554688 39.378906 " clip-rule="nonzero"/></clipPath><clipPath id="d7efcdaa92"><path d="M 206.824219 47.285156 C 206.597656 47.285156 206.359375 47.25 206.109375 47.183594 L 111.390625 47.183594 C 111.144531 47.25 110.90625 47.285156 110.675781 47.285156 C 109.460938 47.285156 108.5625 46.367188 108.5625 45.277344 L 108.5625 41.804688 C 108.5625 40.511719 109.832031 39.460938 111.390625 39.460938 L 206.109375 39.460938 C 207.671875 39.460938 208.9375 40.511719 208.9375 41.804688 L 208.9375 45.277344 C 208.9375 46.367188 208.039062 47.285156 206.824219 47.285156 " clip-rule="nonzero"/></clipPath><clipPath id="b131cd0076"><path d="M 206.824219 47.28125 C 206.597656 47.28125 206.359375 47.25 206.109375 47.183594 L 111.390625 47.183594 C 111.144531 47.25 110.90625 47.28125 110.675781 47.28125 C 109.460938 47.28125 108.5625 46.367188 108.5625 45.277344 L 108.5625 41.804688 C 108.5625 40.511719 109.832031 39.460938 111.390625 39.460938 L 206.109375 39.460938 C 207.671875 39.460938 208.9375 40.511719 208.9375 41.804688 L 208.9375 45.277344 C 208.9375 46.367188 208.042969 47.28125 206.824219 47.28125 " clip-rule="nonzero"/></clipPath><clipPath id="75dbcd2f28"><path d="M 209.789062 39.554688 L 109.761719 28.570312 L 107.714844 47.1875 L 207.742188 58.171875 Z M 209.789062 39.554688 " clip-rule="nonzero"/></clipPath><linearGradient x1="-0.0154677" gradientTransform="matrix(-11.977638, 108.901677, -108.997806, -11.967075, 152.004741, 34.913199)" y1="0" x2="0.155502" gradientUnits="userSpaceOnUse" y2="0" id="adba6023de"><stop stop-opacity="1" stop-color="rgb(100%, 68.598938%, 67.799377%)" offset="0"/><stop stop-opacity="1" stop-color="rgb(100%, 68.598938%, 67.799377%)" offset="0.25"/><stop stop-opacity="1" stop-color="rgb(100%, 68.403625%, 67.652893%)" offset="0.375"/><stop stop-opacity="1" stop-color="rgb(100%, 68.203735%, 67.407227%)" offset="0.4375"/><stop stop-opacity="1" stop-color="rgb(100%, 68.199158%, 67.207336%)" offset="0.5"/><stop stop-opacity="1" stop-color="rgb(100%, 68.103027%, 67.007446%)" offset="0.5625"/><stop stop-opacity="1" stop-color="rgb(100%, 67.907715%, 66.807556%)" offset="0.625"/><stop stop-opacity="1" stop-color="rgb(100%, 67.803955%, 66.703796%)" offset="0.75"/><stop stop-opacity="1" stop-color="rgb(100%, 67.652893%, 66.503906%)" offset="0.875"/><stop stop-opacity="1" stop-color="rgb(100%, 67.501831%, 66.207886%)" offset="0.9375"/><stop stop-opacity="1" stop-color="rgb(100%, 67.498779%, 66.007996%)" offset="1"/></linearGradient><clipPath id="e8e0e9a390"><path d="M 40.050781 67.457031 L 178.460938 67.457031 L 178.460938 145.140625 L 40.050781 145.140625 Z M 40.050781 67.457031 " clip-rule="nonzero"/></clipPath><clipPath id="b0b5134e13"><path d="M 45.929688 145.09375 C 42.699219 145.09375 40.078125 142.417969 40.078125 139.113281 L 40.078125 73.488281 C 40.078125 70.179688 42.703125 67.507812 45.929688 67.507812 C 45.960938 67.507812 45.988281 67.507812 46.019531 67.507812 L 172.621094 69.519531 C 175.816406 69.570312 178.378906 72.234375 178.378906 75.5 L 178.378906 136.019531 C 178.378906 140.882812 174.4375 144.828125 169.570312 144.839844 L 45.929688 145.09375 M 113.023438 95.074219 C 106.304688 95.074219 100.839844 100.535156 100.839844 107.261719 C 100.839844 113.976562 106.304688 119.4375 113.039062 119.4375 C 119.757812 119.4375 125.222656 113.976562 125.222656 107.261719 L 125.222656 107.25 C 125.222656 100.535156 119.757812 95.074219 113.023438 95.074219 M 113.023438 118.71875 C 106.703125 118.71875 101.558594 113.578125 101.558594 107.25 C 101.558594 100.933594 106.703125 95.792969 113.039062 95.792969 C 119.359375 95.792969 124.503906 100.933594 124.503906 107.25 L 124.503906 107.261719 C 124.503906 113.578125 119.359375 118.71875 113.023438 118.71875 M 109.765625 100.960938 C 109.570312 100.960938 109.378906 101.015625 109.210938 101.128906 C 108.914062 101.324219 108.742188 101.652344 108.75 102.003906 L 109.039062 112.757812 C 109.046875 113.101562 109.328125 113.375 109.667969 113.375 L 109.6875 113.375 C 110.035156 113.363281 110.308594 113.074219 110.300781 112.726562 L 110.023438 102.367188 L 119.851562 106.960938 L 110.898438 111.730469 C 110.589844 111.894531 110.476562 112.273438 110.640625 112.582031 C 110.753906 112.796875 110.96875 112.917969 111.195312 112.917969 C 111.296875 112.917969 111.398438 112.890625 111.492188 112.84375 L 120.878906 107.84375 C 121.21875 107.660156 121.425781 107.308594 121.417969 106.917969 C 121.40625 106.535156 121.179688 106.191406 120.832031 106.027344 L 110.199219 101.058594 C 110.058594 100.992188 109.914062 100.960938 109.765625 100.960938 " clip-rule="nonzero"/></clipPath><clipPath id="9ff5bab4ae"><path d="M 45.929688 145.09375 C 42.699219 145.09375 40.078125 142.417969 40.078125 139.113281 L 40.078125 73.488281 C 40.078125 70.179688 42.703125 67.507812 45.925781 67.507812 C 45.957031 67.507812 45.988281 67.507812 46.019531 67.507812 L 172.621094 69.523438 C 175.816406 69.574219 178.378906 72.234375 178.378906 75.5 L 178.378906 136.019531 C 178.378906 140.882812 174.4375 144.832031 169.570312 144.839844 L 45.929688 145.09375 M 113.023438 95.074219 C 106.304688 95.074219 100.839844 100.535156 100.839844 107.261719 C 100.839844 113.976562 106.304688 119.4375 113.039062 119.4375 C 119.757812 119.4375 125.222656 113.976562 125.222656 107.261719 L 125.222656 107.25 C 125.222656 100.535156 119.757812 95.074219 113.023438 95.074219 M 113.023438 118.71875 C 106.703125 118.71875 101.558594 113.582031 101.558594 107.25 C 101.558594 100.933594 106.703125 95.792969 113.039062 95.792969 C 119.359375 95.792969 124.503906 100.933594 124.503906 107.25 L 124.503906 107.261719 C 124.503906 113.582031 119.359375 118.71875 113.023438 118.71875 M 109.765625 100.960938 C 109.570312 100.960938 109.378906 101.019531 109.210938 101.128906 C 108.914062 101.324219 108.742188 101.652344 108.75 102.003906 L 109.039062 112.761719 C 109.046875 113.101562 109.328125 113.375 109.667969 113.375 L 109.6875 113.375 C 110.035156 113.363281 110.308594 113.074219 110.300781 112.726562 L 110.023438 102.367188 L 119.851562 106.960938 L 110.898438 111.730469 C 110.589844 111.894531 110.472656 112.273438 110.636719 112.582031 C 110.753906 112.796875 110.96875 112.917969 111.195312 112.917969 C 111.296875 112.917969 111.398438 112.894531 111.492188 112.84375 L 120.878906 107.84375 C 121.21875 107.660156 121.425781 107.308594 121.417969 106.921875 C 121.40625 106.535156 121.179688 106.191406 120.832031 106.027344 L 110.195312 101.058594 C 110.058594 100.996094 109.914062 100.960938 109.765625 100.960938 " clip-rule="nonzero"/></clipPath><clipPath id="bae5809fe5"><path d="M 187.121094 68.503906 L 41.855469 51.953125 L 31.335938 144.097656 L 176.605469 160.648438 Z M 187.121094 68.503906 " clip-rule="nonzero"/></clipPath><linearGradient x1="0.541199" gradientTransform="matrix(-17.462436, 152.988312, -153.123361, -17.447037, 123.667983, -22.598752)" y1="0" x2="1.143501" gradientUnits="userSpaceOnUse" y2="0" id="c14c728446"><stop stop-opacity="1" stop-color="rgb(99.598694%, 50.19989%, 46.299744%)" offset="0"/><stop stop-opacity="1" stop-color="rgb(99.598694%, 50.006104%, 46.299744%)" offset="0.03125"/><stop stop-opacity="1" stop-color="rgb(99.598694%, 49.804688%, 46.110535%)" offset="0.0625"/><stop stop-opacity="1" stop-color="rgb(99.598694%, 49.708557%, 45.820618%)" offset="0.078125"/><stop stop-opacity="1" stop-color="rgb(99.598694%, 49.519348%, 45.619202%)" offset="0.09375"/><stop stop-opacity="1" stop-color="rgb(99.598694%, 49.317932%, 45.417786%)" offset="0.109375"/><stop stop-opacity="1" stop-color="rgb(99.598694%, 49.116516%, 45.21637%)" offset="0.125"/><stop stop-opacity="1" stop-color="rgb(99.598694%, 49.006653%, 45.014954%)" offset="0.140625"/><stop stop-opacity="1" stop-color="rgb(99.598694%, 48.999023%, 44.813538%)" offset="0.15625"/><stop stop-opacity="1" stop-color="rgb(99.598694%, 48.809814%, 44.7052%)" offset="0.1875"/><stop stop-opacity="1" stop-color="rgb(99.598694%, 48.519897%, 44.60907%)" offset="0.203125"/><stop stop-opacity="1" stop-color="rgb(99.598694%, 48.318481%, 44.418335%)" offset="0.21875"/><stop stop-opacity="1" stop-color="rgb(99.598694%, 48.208618%, 44.216919%)" offset="0.234375"/><stop stop-opacity="1" stop-color="rgb(99.598694%, 48.199463%, 44.015503%)" offset="0.25"/><stop stop-opacity="1" stop-color="rgb(99.598694%, 48.106384%, 43.814087%)" offset="0.265625"/><stop stop-opacity="1" stop-color="rgb(99.598694%, 47.912598%, 43.612671%)" offset="0.28125"/><stop stop-opacity="1" stop-color="rgb(99.598694%, 47.805786%, 43.412781%)" offset="0.296875"/><stop stop-opacity="1" stop-color="rgb(99.598694%, 47.799683%, 43.217468%)" offset="0.3125"/><stop stop-opacity="1" stop-color="rgb(99.598694%, 47.731018%, 43.019104%)" offset="0.328125"/><stop stop-opacity="1" stop-color="rgb(99.598694%, 47.587585%, 42.817688%)" offset="0.34375"/><stop stop-opacity="1" stop-color="rgb(99.598694%, 47.413635%, 42.707825%)" offset="0.359375"/><stop stop-opacity="1" stop-color="rgb(99.598694%, 47.215271%, 42.698669%)" offset="0.375"/><stop stop-opacity="1" stop-color="rgb(99.598694%, 47.106934%, 42.552185%)" offset="0.40625"/><stop stop-opacity="1" stop-color="rgb(99.598694%, 46.908569%, 42.21344%)" offset="0.4375"/><stop stop-opacity="1" stop-color="rgb(99.598694%, 46.618652%, 41.918945%)" offset="0.453125"/><stop stop-opacity="1" stop-color="rgb(99.598694%, 46.417236%, 41.717529%)" offset="0.46875"/><stop stop-opacity="1" stop-color="rgb(99.598694%, 46.307373%, 41.516113%)" offset="0.484375"/><stop stop-opacity="1" stop-color="rgb(99.598694%, 46.299744%, 41.313171%)" offset="0.5"/><stop stop-opacity="1" stop-color="rgb(99.598694%, 46.205139%, 41.111755%)" offset="0.515625"/><stop stop-opacity="1" stop-color="rgb(99.598694%, 46.009827%, 40.910339%)" offset="0.53125"/><stop stop-opacity="1" stop-color="rgb(99.598694%, 45.713806%, 40.803528%)" offset="0.5625"/><stop stop-opacity="1" stop-color="rgb(99.598694%, 45.507812%, 40.606689%)" offset="0.59375"/><stop stop-opacity="1" stop-color="rgb(99.598694%, 45.405579%, 40.315247%)" offset="0.609375"/><stop stop-opacity="1" stop-color="rgb(99.598694%, 45.213318%, 40.112305%)" offset="0.625"/><stop stop-opacity="1" stop-color="rgb(99.598694%, 45.011902%, 39.910889%)" offset="0.640625"/><stop stop-opacity="1" stop-color="rgb(99.598694%, 44.80896%, 39.709473%)" offset="0.65625"/><stop stop-opacity="1" stop-color="rgb(99.598694%, 44.703674%, 39.413452%)" offset="0.6875"/><stop stop-opacity="1" stop-color="rgb(99.598694%, 44.506836%, 39.208984%)" offset="0.71875"/><stop stop-opacity="1" stop-color="rgb(99.598694%, 44.306946%, 39.006042%)" offset="0.75"/><stop stop-opacity="1" stop-color="rgb(99.598694%, 44.200134%, 38.705444%)" offset="0.875"/><stop stop-opacity="1" stop-color="rgb(99.598694%, 44.000244%, 38.499451%)" offset="1"/></linearGradient><clipPath id="23d7cc3fb9"><path d="M 115.929688 149.117188 L 183.496094 149.117188 L 183.496094 158.945312 L 115.929688 158.945312 Z M 115.929688 149.117188 " clip-rule="nonzero"/></clipPath><clipPath id="f3bfaa1932"><path d="M 183.414062 158.886719 L 115.953125 158.886719 L 116.011719 151.398438 C 116.023438 150.199219 117.621094 149.234375 119.613281 149.222656 L 178.953125 150.09375 C 181.46875 150.128906 183.480469 151.375 183.46875 152.882812 L 183.414062 158.886719 " clip-rule="nonzero"/></clipPath><clipPath id="24eb75648c"><path d="M 183.414062 158.882812 L 115.953125 158.882812 L 116.015625 151.398438 C 116.023438 150.199219 117.621094 149.234375 119.613281 149.222656 L 178.953125 150.09375 C 181.46875 150.132812 183.480469 151.375 183.46875 152.882812 L 183.414062 158.882812 " clip-rule="nonzero"/></clipPath><clipPath id="5a38482287"><path d="M 184.316406 149.292969 L 116.457031 143.398438 L 115.117188 158.8125 L 182.972656 164.707031 Z M 184.316406 149.292969 " clip-rule="nonzero"/></clipPath><linearGradient x1="0.429414" gradientTransform="matrix(-22.128521, 254.240191, -254.464589, -22.109006, 154.886631, 36.737452)" y1="0" x2="0.49004" gradientUnits="userSpaceOnUse" y2="0" id="63f5ffa5ef"><stop stop-opacity="1" stop-color="rgb(99.598694%, 75.299072%, 74.899292%)" offset="0"/><stop stop-opacity="1" stop-color="rgb(99.598694%, 75.299072%, 74.899292%)" offset="0.5"/><stop stop-opacity="1" stop-color="rgb(99.598694%, 75.19989%, 74.80011%)" offset="0.75"/><stop stop-opacity="1" stop-color="rgb(99.598694%, 75%, 74.60022%)" offset="1"/></linearGradient><clipPath id="a9ae6c2ee8"><path d="M 39.234375 148.886719 L 107.148438 148.886719 L 107.148438 189.949219 L 39.234375 189.949219 Z M 39.234375 148.886719 " clip-rule="nonzero"/></clipPath><clipPath id="f7633ae30c"><path d="M 95.144531 189.9375 L 42.945312 189.503906 C 40.914062 189.484375 39.277344 188.484375 39.285156 187.265625 L 39.585938 151.144531 C 39.597656 149.949219 41.195312 148.984375 43.1875 148.96875 L 102.527344 149.839844 C 105.042969 149.878906 107.054688 151.121094 107.039062 152.632812 L 106.984375 158.886719 L 106.335938 158.886719 C 100.167969 158.886719 95.164062 163.027344 95.160156 168.136719 L 95.144531 189.9375 " clip-rule="nonzero"/></clipPath><clipPath id="41a287305a"><path d="M 95.144531 189.9375 L 42.945312 189.503906 C 40.914062 189.484375 39.277344 188.484375 39.285156 187.265625 L 39.585938 151.144531 C 39.597656 149.949219 41.195312 148.984375 43.1875 148.96875 L 102.527344 149.839844 C 105.042969 149.878906 107.054688 151.121094 107.039062 152.632812 L 106.984375 158.886719 L 106.339844 158.886719 C 100.167969 158.886719 95.164062 163.027344 95.160156 168.136719 L 95.144531 189.9375 " clip-rule="nonzero"/></clipPath><clipPath id="4aa007d7a3"><path d="M 110.59375 149.277344 L 39.785156 143.125 L 35.738281 189.628906 L 106.546875 195.78125 Z M 110.59375 149.277344 " clip-rule="nonzero"/></clipPath><linearGradient x1="0.454346" gradientTransform="matrix(-22.128521, 254.240191, -254.464589, -22.109006, 154.886631, 36.737452)" y1="0" x2="0.637264" gradientUnits="userSpaceOnUse" y2="0" id="fe57c0bf6b"><stop stop-opacity="1" stop-color="rgb(99.598694%, 74.899292%, 74.499512%)" offset="0"/><stop stop-opacity="1" stop-color="rgb(99.598694%, 74.899292%, 74.499512%)" offset="0.125"/><stop stop-opacity="1" stop-color="rgb(99.598694%, 74.803162%, 74.403381%)" offset="0.1875"/><stop stop-opacity="1" stop-color="rgb(99.598694%, 74.606323%, 74.206543%)" offset="0.25"/><stop stop-opacity="1" stop-color="rgb(99.694824%, 74.502563%, 74.102783%)" offset="0.3125"/><stop stop-opacity="1" stop-color="rgb(99.893188%, 74.499512%, 74.099731%)" offset="0.375"/><stop stop-opacity="1" stop-color="rgb(99.996948%, 74.401855%, 74.002075%)" offset="0.4375"/><stop stop-opacity="1" stop-color="rgb(100%, 74.203491%, 73.803711%)" offset="0.5"/><stop stop-opacity="1" stop-color="rgb(100%, 74.002075%, 73.602295%)" offset="0.5625"/><stop stop-opacity="1" stop-color="rgb(100%, 73.800659%, 73.400879%)" offset="0.625"/><stop stop-opacity="1" stop-color="rgb(100%, 73.699951%, 73.199463%)" offset="0.6875"/><stop stop-opacity="1" stop-color="rgb(100%, 73.698425%, 72.999573%)" offset="0.75"/><stop stop-opacity="1" stop-color="rgb(100%, 73.597717%, 72.898865%)" offset="0.8125"/><stop stop-opacity="1" stop-color="rgb(100%, 73.396301%, 72.897339%)" offset="0.875"/><stop stop-opacity="1" stop-color="rgb(100%, 73.196411%, 72.796631%)" offset="0.9375"/><stop stop-opacity="1" stop-color="rgb(100%, 72.996521%, 72.596741%)" offset="1"/></linearGradient><clipPath id="b023a77fa4"><path d="M 191.574219 150.289062 L 259.140625 150.289062 L 259.140625 158.945312 L 191.574219 158.945312 Z M 191.574219 150.289062 " clip-rule="nonzero"/></clipPath><clipPath id="bfd0daaf29"><path d="M 259.082031 158.886719 L 191.617188 158.886719 L 191.671875 152.503906 C 191.679688 151.304688 193.277344 150.339844 195.269531 150.328125 L 254.613281 151.199219 C 257.125 151.238281 259.136719 152.480469 259.125 153.988281 L 259.082031 158.886719 " clip-rule="nonzero"/></clipPath><clipPath id="7a1d0ad99f"><path d="M 259.082031 158.882812 L 191.617188 158.882812 L 191.671875 152.503906 C 191.679688 151.308594 193.277344 150.339844 195.269531 150.328125 L 254.613281 151.199219 C 257.125 151.234375 259.136719 152.480469 259.125 153.988281 L 259.082031 158.882812 " clip-rule="nonzero"/></clipPath><clipPath id="16d1120361"><path d="M 259.875 150.390625 L 192.125 144.503906 L 190.878906 158.820312 L 258.632812 164.707031 Z M 259.875 150.390625 " clip-rule="nonzero"/></clipPath><linearGradient x1="0.408069" gradientTransform="matrix(-22.128521, 254.240191, -254.464589, -22.109006, 154.886631, 36.737452)" y1="0" x2="0.464376" gradientUnits="userSpaceOnUse" y2="0" id="b1b14262d2"><stop stop-opacity="1" stop-color="rgb(99.598694%, 75.698853%, 75.297546%)" offset="0"/><stop stop-opacity="1" stop-color="rgb(99.598694%, 75.59967%, 75.198364%)" offset="0.25"/><stop stop-opacity="1" stop-color="rgb(99.598694%, 75.401306%, 75.001526%)" offset="0.5"/><stop stop-opacity="1" stop-color="rgb(99.598694%, 75.204468%, 74.900818%)" offset="0.75"/><stop stop-opacity="1" stop-color="rgb(99.598694%, 75.006104%, 74.899292%)" offset="1"/></linearGradient><clipPath id="01dbf3b0e4"><path d="M 185.835938 67.457031 L 257.617188 67.457031 L 257.617188 144.554688 L 185.835938 144.554688 Z M 185.835938 67.457031 " clip-rule="nonzero"/></clipPath><clipPath id="970c36ab0a"><path d="M 250.785156 144.484375 L 192.707031 144.484375 C 188.976562 144.484375 185.953125 142.515625 185.953125 140.085938 L 185.953125 71.433594 C 185.953125 69.394531 188.402344 67.734375 191.4375 67.726562 L 251.078125 67.507812 C 254.691406 67.609375 257.539062 69.546875 257.539062 71.902344 L 257.539062 140.085938 C 257.539062 142.515625 254.515625 144.484375 250.785156 144.484375 " clip-rule="nonzero"/></clipPath><clipPath id="ecff64d6c7"><path d="M 250.785156 144.484375 L 192.703125 144.484375 C 188.976562 144.484375 185.949219 142.515625 185.949219 140.085938 L 185.949219 71.4375 C 185.949219 69.394531 188.402344 67.738281 191.4375 67.726562 L 251.078125 67.507812 C 254.691406 67.609375 257.535156 69.546875 257.535156 71.902344 L 257.535156 140.085938 C 257.535156 142.515625 254.515625 144.484375 250.785156 144.484375 " clip-rule="nonzero"/></clipPath><clipPath id="68fa299422"><path d="M 264.1875 68.085938 L 186.488281 61.335938 L 179.300781 143.90625 L 257 150.65625 Z M 264.1875 68.085938 " clip-rule="nonzero"/></clipPath><linearGradient x1="0.0853091" gradientTransform="matrix(-22.128521, 254.240191, -254.464589, -22.109006, 154.886631, 36.737452)" y1="0" x2="0.410084" gradientUnits="userSpaceOnUse" y2="0" id="f07f6b9243"><stop stop-opacity="1" stop-color="rgb(99.598694%, 79.199219%, 79.199219%)" offset="0"/><stop stop-opacity="1" stop-color="rgb(99.598694%, 79.199219%, 79.005432%)" offset="0.125"/><stop stop-opacity="1" stop-color="rgb(99.598694%, 79.005432%, 78.805542%)" offset="0.1875"/><stop stop-opacity="1" stop-color="rgb(99.598694%, 78.712463%, 78.704834%)" offset="0.21875"/><stop stop-opacity="1" stop-color="rgb(99.598694%, 78.509521%, 78.509521%)" offset="0.25"/><stop stop-opacity="1" stop-color="rgb(99.598694%, 78.404236%, 78.309631%)" offset="0.28125"/><stop stop-opacity="1" stop-color="rgb(99.598694%, 78.399658%, 78.109741%)" offset="0.3125"/><stop stop-opacity="1" stop-color="rgb(99.598694%, 78.303528%, 78.004456%)" offset="0.34375"/><stop stop-opacity="1" stop-color="rgb(99.598694%, 78.108215%, 77.999878%)" offset="0.375"/><stop stop-opacity="1" stop-color="rgb(99.598694%, 77.906799%, 77.903748%)" offset="0.40625"/><stop stop-opacity="1" stop-color="rgb(99.598694%, 77.708435%, 77.708435%)" offset="0.4375"/><stop stop-opacity="1" stop-color="rgb(99.598694%, 77.603149%, 77.456665%)" offset="0.5"/><stop stop-opacity="1" stop-color="rgb(99.598694%, 77.452087%, 77.301025%)" offset="0.5625"/><stop stop-opacity="1" stop-color="rgb(99.598694%, 77.302551%, 77.201843%)" offset="0.59375"/><stop stop-opacity="1" stop-color="rgb(99.598694%, 77.2995%, 77.003479%)" offset="0.625"/><stop stop-opacity="1" stop-color="rgb(99.598694%, 77.201843%, 76.803589%)" offset="0.65625"/><stop stop-opacity="1" stop-color="rgb(99.598694%, 77.005005%, 76.605225%)" offset="0.6875"/><stop stop-opacity="1" stop-color="rgb(99.598694%, 76.803589%, 76.502991%)" offset="0.71875"/><stop stop-opacity="1" stop-color="rgb(99.598694%, 76.602173%, 76.499939%)" offset="0.75"/><stop stop-opacity="1" stop-color="rgb(99.598694%, 76.499939%, 76.400757%)" offset="0.78125"/><stop stop-opacity="1" stop-color="rgb(99.598694%, 76.499939%, 76.202393%)" offset="0.8125"/><stop stop-opacity="1" stop-color="rgb(99.598694%, 76.400757%, 76.002502%)" offset="0.84375"/><stop stop-opacity="1" stop-color="rgb(99.598694%, 76.200867%, 75.799561%)" offset="0.875"/><stop stop-opacity="1" stop-color="rgb(99.598694%, 76.098633%, 75.698853%)" offset="0.9375"/><stop stop-opacity="1" stop-color="rgb(99.598694%, 75.999451%, 75.598145%)" offset="0.96875"/><stop stop-opacity="1" stop-color="rgb(99.598694%, 75.799561%, 75.398254%)" offset="1"/></linearGradient><clipPath id="0e97d5f093"><path d="M 100.824219 95.066406 L 125.296875 95.066406 L 125.296875 119.519531 L 100.824219 119.519531 Z M 100.824219 95.066406 " clip-rule="nonzero"/></clipPath><clipPath id="50fc82cf6a"><path d="M 113.039062 119.4375 C 106.304688 119.4375 100.839844 113.976562 100.839844 107.261719 C 100.839844 100.535156 106.304688 95.074219 113.023438 95.074219 C 119.757812 95.074219 125.222656 100.535156 125.222656 107.25 L 125.222656 107.261719 C 125.222656 113.976562 119.757812 119.4375 113.039062 119.4375 M 113.039062 95.792969 C 106.703125 95.792969 101.558594 100.933594 101.558594 107.25 C 101.558594 113.578125 106.703125 118.71875 113.023438 118.71875 C 119.359375 118.71875 124.503906 113.578125 124.503906 107.261719 L 124.503906 107.25 C 124.503906 100.933594 119.359375 95.792969 113.039062 95.792969 " clip-rule="nonzero"/></clipPath><clipPath id="84f6f23161"><path d="M 113.039062 119.4375 C 106.304688 119.4375 100.839844 113.976562 100.839844 107.261719 C 100.839844 100.535156 106.304688 95.074219 113.023438 95.074219 C 119.757812 95.074219 125.222656 100.535156 125.222656 107.246094 L 125.222656 107.261719 C 125.222656 113.976562 119.757812 119.4375 113.039062 119.4375 M 113.039062 95.792969 C 106.703125 95.792969 101.558594 100.929688 101.558594 107.246094 C 101.558594 113.578125 106.703125 118.714844 113.023438 118.714844 C 119.359375 118.714844 124.503906 113.578125 124.503906 107.261719 L 124.503906 107.246094 C 124.503906 100.929688 119.359375 95.792969 113.039062 95.792969 " clip-rule="nonzero"/></clipPath><clipPath id="7c05319630"><path d="M 127.96875 95.386719 L 101.152344 92.332031 L 98.09375 119.125 L 124.910156 122.179688 Z M 127.96875 95.386719 " clip-rule="nonzero"/></clipPath><linearGradient x1="0.758136" gradientTransform="matrix(-17.462436, 152.988312, -153.123361, -17.447037, 123.667983, -22.598752)" y1="0" x2="0.933271" gradientUnits="userSpaceOnUse" y2="0" id="179cd92f92"><stop stop-opacity="1" stop-color="rgb(100%, 95.298767%, 94.898987%)" offset="0"/><stop stop-opacity="1" stop-color="rgb(100%, 95.298767%, 94.898987%)" offset="0.5"/><stop stop-opacity="1" stop-color="rgb(100%, 95.201111%, 94.799805%)" offset="0.75"/><stop stop-opacity="1" stop-color="rgb(100%, 95.002747%, 94.60144%)" offset="1"/></linearGradient><clipPath id="50148841c0"><path d="M 108.671875 100.917969 L 121.433594 100.917969 L 121.433594 113.4375 L 108.671875 113.4375 Z M 108.671875 100.917969 " clip-rule="nonzero"/></clipPath><clipPath id="201831afed"><path d="M 109.667969 113.375 C 109.328125 113.375 109.046875 113.101562 109.039062 112.757812 L 108.75 102.003906 C 108.742188 101.652344 108.914062 101.324219 109.210938 101.128906 C 109.378906 101.015625 109.570312 100.960938 109.765625 100.960938 C 109.914062 100.960938 110.058594 100.992188 110.199219 101.058594 L 120.832031 106.027344 C 121.179688 106.191406 121.40625 106.535156 121.417969 106.917969 C 121.425781 107.308594 121.21875 107.660156 120.878906 107.84375 L 111.492188 112.84375 C 111.398438 112.890625 111.296875 112.917969 111.195312 112.917969 C 110.96875 112.917969 110.753906 112.796875 110.640625 112.582031 C 110.476562 112.273438 110.589844 111.894531 110.898438 111.730469 L 119.851562 106.960938 L 110.023438 102.367188 L 110.300781 112.726562 C 110.308594 113.074219 110.035156 113.363281 109.6875 113.375 L 109.667969 113.375 " clip-rule="nonzero"/></clipPath><clipPath id="cad0302c45"><path d="M 109.667969 113.371094 C 109.328125 113.371094 109.046875 113.101562 109.039062 112.761719 L 108.75 102.003906 C 108.742188 101.652344 108.914062 101.324219 109.210938 101.128906 C 109.378906 101.019531 109.570312 100.960938 109.765625 100.960938 C 109.914062 100.960938 110.058594 100.996094 110.199219 101.058594 L 120.832031 106.027344 C 121.179688 106.191406 121.40625 106.535156 121.417969 106.917969 C 121.425781 107.308594 121.21875 107.660156 120.878906 107.84375 L 111.492188 112.84375 C 111.398438 112.894531 111.296875 112.917969 111.195312 112.917969 C 110.96875 112.917969 110.753906 112.796875 110.640625 112.582031 C 110.476562 112.273438 110.589844 111.894531 110.898438 111.730469 L 119.851562 106.960938 L 110.023438 102.371094 L 110.300781 112.726562 C 110.308594 113.074219 110.035156 113.363281 109.6875 113.371094 L 109.667969 113.371094 " clip-rule="nonzero"/></clipPath><clipPath id="49d7aec03f"><path d="M 122.824219 101.121094 L 108.90625 99.535156 L 107.34375 113.214844 L 121.261719 114.800781 Z M 122.824219 101.121094 " clip-rule="nonzero"/></clipPath><linearGradient x1="0.798923" gradientTransform="matrix(-17.462436, 152.988312, -153.123361, -17.447037, 123.667983, -22.598752)" y1="0" x2="0.888333" gradientUnits="userSpaceOnUse" y2="0" id="b1ecc2e9ee"><stop stop-opacity="1" stop-color="rgb(100%, 95.298767%, 94.898987%)" offset="0"/><stop stop-opacity="1" stop-color="rgb(100%, 95.298767%, 94.898987%)" offset="0.5"/><stop stop-opacity="1" stop-color="rgb(100%, 95.201111%, 94.898987%)" offset="0.75"/><stop stop-opacity="1" stop-color="rgb(100%, 95.004272%, 94.898987%)" offset="1"/></linearGradient><clipPath id="7519d40b2a"><path d="M 95 158.828125 L 346.84375 158.828125 L 346.84375 328 L 95 328 Z M 95 158.828125 " clip-rule="nonzero"/></clipPath><clipPath id="e29be8a2dc"><path d="M 322.804688 328 C 322.695312 328 322.589844 328 322.480469 328 L 185.761719 326.578125 L 157.4375 326.285156 L 108.988281 325.78125 C 101.570312 325.703125 95.355469 321.835938 95.066406 316.902344 C 95.058594 316.746094 95.050781 316.589844 95.050781 316.429688 L 95.058594 304.804688 L 95.140625 196.570312 L 95.140625 192.125 L 95.144531 189.9375 L 95.160156 168.136719 C 95.164062 163.027344 100.167969 158.886719 106.335938 158.886719 L 335.664062 158.886719 C 341.914062 158.886719 346.953125 163.132812 346.839844 168.308594 L 346.628906 177.851562 L 343.613281 315.625 C 343.460938 322.503906 336.679688 328 322.804688 328 M 111.394531 162.875 C 105.46875 162.875 100.664062 166.808594 100.660156 171.664062 L 100.558594 312.566406 C 100.554688 317.382812 105.28125 321.304688 111.15625 321.363281 L 324.433594 323.558594 C 324.496094 323.558594 324.558594 323.558594 324.621094 323.558594 C 332.578125 323.558594 339.089844 318.335938 339.234375 311.796875 L 342.332031 171.828125 C 342.441406 166.910156 337.605469 162.875 331.601562 162.875 L 111.394531 162.875 " clip-rule="nonzero"/></clipPath><clipPath id="b38505921e"><path d="M 322.804688 328 C 322.699219 328 322.589844 328 322.480469 328 L 185.761719 326.578125 L 157.4375 326.285156 L 108.988281 325.78125 C 101.570312 325.703125 95.355469 321.835938 95.066406 316.902344 C 95.058594 316.746094 95.050781 316.589844 95.050781 316.429688 L 95.058594 304.804688 L 95.140625 196.570312 L 95.140625 192.125 L 95.144531 189.9375 L 95.160156 168.136719 C 95.164062 163.027344 100.167969 158.886719 106.335938 158.886719 L 335.664062 158.886719 C 341.914062 158.886719 346.953125 163.132812 346.839844 168.308594 L 346.628906 177.851562 L 343.613281 315.625 C 343.460938 322.503906 336.675781 328 322.804688 328 M 111.394531 162.875 C 105.46875 162.875 100.664062 166.808594 100.660156 171.664062 L 100.558594 312.566406 C 100.554688 317.382812 105.28125 321.304688 111.15625 321.363281 L 324.4375 323.558594 C 324.496094 323.558594 324.558594 323.558594 324.621094 323.558594 C 332.578125 323.558594 339.089844 318.335938 339.234375 311.796875 L 342.332031 171.828125 C 342.441406 166.910156 337.605469 162.875 331.601562 162.875 L 111.394531 162.875 " clip-rule="nonzero"/></clipPath><clipPath id="b0e0c0098c"><path d="M 430.636719 230.824219 L 202.207031 34.457031 L 11.367188 256.0625 L 239.796875 452.429688 Z M 430.636719 230.824219 " clip-rule="nonzero"/></clipPath><linearGradient x1="0.101682" gradientTransform="matrix(-203.022839, 235.752751, -235.960854, -202.843811, 335.452781, 107.375184)" y1="0" x2="1.041446" gradientUnits="userSpaceOnUse" y2="0" id="e011ae357e"><stop stop-opacity="1" stop-color="rgb(30.198669%, 31.399536%, 98.799133%)" offset="0"/><stop stop-opacity="1" stop-color="rgb(30.198669%, 31.399536%, 98.79303%)" offset="0.03125"/><stop stop-opacity="1" stop-color="rgb(30.197144%, 31.39801%, 98.591614%)" offset="0.0625"/><stop stop-opacity="1" stop-color="rgb(30.096436%, 31.295776%, 98.295593%)" offset="0.078125"/><stop stop-opacity="1" stop-color="rgb(29.896545%, 31.097412%, 98.094177%)" offset="0.09375"/><stop stop-opacity="1" stop-color="rgb(29.798889%, 30.999756%, 97.892761%)" offset="0.109375"/><stop stop-opacity="1" stop-color="rgb(29.794312%, 30.995178%, 97.691345%)" offset="0.125"/><stop stop-opacity="1" stop-color="rgb(29.594421%, 30.795288%, 97.439575%)" offset="0.15625"/><stop stop-opacity="1" stop-color="rgb(29.399109%, 30.59845%, 97.093201%)" offset="0.1875"/><stop stop-opacity="1" stop-color="rgb(29.399109%, 30.496216%, 96.899414%)" offset="0.203125"/><stop stop-opacity="1" stop-color="rgb(29.396057%, 30.296326%, 96.896362%)" offset="0.21875"/><stop stop-opacity="1" stop-color="rgb(29.292297%, 30.198669%, 96.792603%)" offset="0.234375"/><stop stop-opacity="1" stop-color="rgb(29.095459%, 30.194092%, 96.591187%)" offset="0.25"/><stop stop-opacity="1" stop-color="rgb(28.999329%, 30.090332%, 96.389771%)" offset="0.265625"/><stop stop-opacity="1" stop-color="rgb(28.993225%, 29.893494%, 96.188354%)" offset="0.28125"/><stop stop-opacity="1" stop-color="rgb(28.793335%, 29.797363%, 95.892334%)" offset="0.3125"/><stop stop-opacity="1" stop-color="rgb(28.599548%, 29.696655%, 95.596313%)" offset="0.328125"/><stop stop-opacity="1" stop-color="rgb(28.596497%, 29.496765%, 95.394897%)" offset="0.34375"/><stop stop-opacity="1" stop-color="rgb(28.492737%, 29.399109%, 95.193481%)" offset="0.359375"/><stop stop-opacity="1" stop-color="rgb(28.295898%, 29.394531%, 94.992065%)" offset="0.375"/><stop stop-opacity="1" stop-color="rgb(28.199768%, 29.290771%, 94.790649%)" offset="0.390625"/><stop stop-opacity="1" stop-color="rgb(28.199768%, 29.093933%, 94.593811%)" offset="0.40625"/><stop stop-opacity="1" stop-color="rgb(28.198242%, 28.999329%, 94.497681%)" offset="0.4375"/><stop stop-opacity="1" stop-color="rgb(28.097534%, 28.999329%, 94.396973%)" offset="0.453125"/><stop stop-opacity="1" stop-color="rgb(27.897644%, 28.996277%, 94.195557%)" offset="0.46875"/><stop stop-opacity="1" stop-color="rgb(27.799988%, 28.894043%, 93.994141%)" offset="0.484375"/><stop stop-opacity="1" stop-color="rgb(27.796936%, 28.695679%, 93.792725%)" offset="0.5"/><stop stop-opacity="1" stop-color="rgb(27.71759%, 28.599548%, 93.591309%)" offset="0.515625"/><stop stop-opacity="1" stop-color="rgb(27.571106%, 28.593445%, 93.389893%)" offset="0.53125"/><stop stop-opacity="1" stop-color="rgb(27.497864%, 28.393555%, 93.093872%)" offset="0.5625"/><stop stop-opacity="1" stop-color="rgb(27.397156%, 28.199768%, 92.797852%)" offset="0.578125"/><stop stop-opacity="1" stop-color="rgb(27.197266%, 28.196716%, 92.596436%)" offset="0.59375"/><stop stop-opacity="1" stop-color="rgb(27.099609%, 28.094482%, 92.419434%)" offset="0.609375"/><stop stop-opacity="1" stop-color="rgb(27.095032%, 27.896118%, 92.271423%)" offset="0.625"/><stop stop-opacity="1" stop-color="rgb(26.991272%, 27.799988%, 92.199707%)" offset="0.640625"/><stop stop-opacity="1" stop-color="rgb(26.794434%, 27.79541%, 92.193604%)" offset="0.65625"/><stop stop-opacity="1" stop-color="rgb(26.699829%, 27.645874%, 91.993713%)" offset="0.6875"/><stop stop-opacity="1" stop-color="rgb(26.699829%, 27.49939%, 91.697693%)" offset="0.703125"/><stop stop-opacity="1" stop-color="rgb(26.696777%, 27.496338%, 91.496277%)" offset="0.71875"/><stop stop-opacity="1" stop-color="rgb(26.594543%, 27.394104%, 91.294861%)" offset="0.734375"/><stop stop-opacity="1" stop-color="rgb(26.396179%, 27.19574%, 91.093445%)" offset="0.75"/><stop stop-opacity="1" stop-color="rgb(26.298523%, 27.099609%, 90.892029%)" offset="0.765625"/><stop stop-opacity="1" stop-color="rgb(26.293945%, 27.093506%, 90.690613%)" offset="0.78125"/><stop stop-opacity="1" stop-color="rgb(26.094055%, 26.893616%, 90.394592%)" offset="0.8125"/><stop stop-opacity="1" stop-color="rgb(25.898743%, 26.699829%, 90.098572%)" offset="0.828125"/><stop stop-opacity="1" stop-color="rgb(25.897217%, 26.696777%, 89.898682%)" offset="0.84375"/><stop stop-opacity="1" stop-color="rgb(25.794983%, 26.594543%, 89.7995%)" offset="0.859375"/><stop stop-opacity="1" stop-color="rgb(25.596619%, 26.396179%, 89.796448%)" offset="0.875"/><stop stop-opacity="1" stop-color="rgb(25.498962%, 26.298523%, 89.691162%)" offset="0.890625"/><stop stop-opacity="1" stop-color="rgb(25.494385%, 26.298523%, 89.489746%)" offset="0.90625"/><stop stop-opacity="1" stop-color="rgb(25.294495%, 26.298523%, 89.195251%)" offset="0.9375"/><stop stop-opacity="1" stop-color="rgb(25.099182%, 26.197815%, 88.897705%)" offset="0.96875"/><stop stop-opacity="1" stop-color="rgb(25.099182%, 25.997925%, 88.697815%)" offset="1"/></linearGradient><clipPath id="ea00f4b497"><path d="M 111.75 197.265625 L 250.050781 197.265625 L 250.050781 274.902344 L 111.75 274.902344 Z M 111.75 197.265625 " clip-rule="nonzero"/></clipPath><clipPath id="7eb3b08a3a"><path d="M 250.050781 265.828125 C 250.050781 270.691406 246.109375 274.640625 241.242188 274.648438 L 117.601562 274.902344 C 114.371094 274.902344 111.75 272.226562 111.75 268.925781 L 111.75 203.296875 C 111.75 199.960938 114.425781 197.265625 117.691406 197.320312 L 244.289062 199.332031 C 247.488281 199.382812 250.050781 202.042969 250.050781 205.308594 Z M 250.050781 265.828125 " clip-rule="nonzero"/></clipPath><clipPath id="a1a0ada646"><path d="M 250.050781 265.828125 C 250.050781 270.691406 246.109375 274.640625 241.242188 274.648438 L 117.601562 274.902344 C 114.371094 274.902344 111.75 272.226562 111.75 268.925781 L 111.75 203.296875 C 111.75 199.957031 114.425781 197.265625 117.691406 197.316406 L 244.292969 199.332031 C 247.488281 199.378906 250.050781 202.042969 250.050781 205.308594 L 250.050781 265.828125 " clip-rule="nonzero"/></clipPath><linearGradient x1="0.000000591127" gradientTransform="matrix(138.30086, 0, 0, 138.178899, 111.750103, 236.111166)" y1="0" x2="1" gradientUnits="userSpaceOnUse" y2="0" id="abd504d517"><stop stop-opacity="1" stop-color="rgb(30.999756%, 32.199097%, 100%)" offset="0"/><stop stop-opacity="1" stop-color="rgb(30.99823%, 32.197571%, 99.996948%)" offset="0.03125"/><stop stop-opacity="1" stop-color="rgb(30.801392%, 32.000732%, 99.80011%)" offset="0.0625"/><stop stop-opacity="1" stop-color="rgb(30.603027%, 31.802368%, 99.504089%)" offset="0.078125"/><stop stop-opacity="1" stop-color="rgb(30.599976%, 31.799316%, 99.302673%)" offset="0.09375"/><stop stop-opacity="1" stop-color="rgb(30.499268%, 31.700134%, 99.101257%)" offset="0.109375"/><stop stop-opacity="1" stop-color="rgb(30.299377%, 31.500244%, 98.899841%)" offset="0.125"/><stop stop-opacity="1" stop-color="rgb(30.198669%, 31.399536%, 98.698425%)" offset="0.140625"/><stop stop-opacity="1" stop-color="rgb(30.197144%, 31.39801%, 98.497009%)" offset="0.15625"/><stop stop-opacity="1" stop-color="rgb(30.000305%, 31.201172%, 98.200989%)" offset="0.1875"/><stop stop-opacity="1" stop-color="rgb(29.801941%, 31.002808%, 97.904968%)" offset="0.203125"/><stop stop-opacity="1" stop-color="rgb(29.798889%, 30.999756%, 97.703552%)" offset="0.21875"/><stop stop-opacity="1" stop-color="rgb(29.699707%, 30.900574%, 97.52655%)" offset="0.234375"/><stop stop-opacity="1" stop-color="rgb(29.499817%, 30.700684%, 97.373962%)" offset="0.25"/><stop stop-opacity="1" stop-color="rgb(29.399109%, 30.599976%, 97.198486%)" offset="0.265625"/><stop stop-opacity="1" stop-color="rgb(29.399109%, 30.596924%, 96.99707%)" offset="0.28125"/><stop stop-opacity="1" stop-color="rgb(29.399109%, 30.400085%, 96.70105%)" offset="0.3125"/><stop stop-opacity="1" stop-color="rgb(29.301453%, 30.201721%, 96.405029%)" offset="0.328125"/><stop stop-opacity="1" stop-color="rgb(29.103088%, 30.198669%, 96.203613%)" offset="0.34375"/><stop stop-opacity="1" stop-color="rgb(29.000854%, 30.099487%, 96.101379%)" offset="0.359375"/><stop stop-opacity="1" stop-color="rgb(28.999329%, 29.899597%, 96.099854%)" offset="0.375"/><stop stop-opacity="1" stop-color="rgb(28.898621%, 29.798889%, 95.99762%)" offset="0.390625"/><stop stop-opacity="1" stop-color="rgb(28.69873%, 29.797363%, 95.796204%)" offset="0.40625"/><stop stop-opacity="1" stop-color="rgb(28.599548%, 29.600525%, 95.500183%)" offset="0.4375"/><stop stop-opacity="1" stop-color="rgb(28.501892%, 29.402161%, 95.204163%)" offset="0.453125"/><stop stop-opacity="1" stop-color="rgb(28.303528%, 29.399109%, 95.002747%)" offset="0.46875"/><stop stop-opacity="1" stop-color="rgb(28.201294%, 29.299927%, 94.801331%)" offset="0.484375"/><stop stop-opacity="1" stop-color="rgb(28.199768%, 29.100037%, 94.599915%)" offset="0.5"/><stop stop-opacity="1" stop-color="rgb(28.09906%, 28.999329%, 94.398499%)" offset="0.515625"/><stop stop-opacity="1" stop-color="rgb(27.89917%, 28.997803%, 94.197083%)" offset="0.53125"/><stop stop-opacity="1" stop-color="rgb(27.799988%, 28.800964%, 93.901062%)" offset="0.5625"/><stop stop-opacity="1" stop-color="rgb(27.726746%, 28.6026%, 93.605042%)" offset="0.578125"/><stop stop-opacity="1" stop-color="rgb(27.577209%, 28.599548%, 93.403625%)" offset="0.59375"/><stop stop-opacity="1" stop-color="rgb(27.49939%, 28.500366%, 93.202209%)" offset="0.609375"/><stop stop-opacity="1" stop-color="rgb(27.49939%, 28.300476%, 92.999268%)" offset="0.625"/><stop stop-opacity="1" stop-color="rgb(27.398682%, 28.199768%, 92.797852%)" offset="0.640625"/><stop stop-opacity="1" stop-color="rgb(27.198792%, 28.198242%, 92.597961%)" offset="0.65625"/><stop stop-opacity="1" stop-color="rgb(27.099609%, 28.001404%, 92.498779%)" offset="0.6875"/><stop stop-opacity="1" stop-color="rgb(27.001953%, 27.80304%, 92.425537%)" offset="0.703125"/><stop stop-opacity="1" stop-color="rgb(26.803589%, 27.799988%, 92.276001%)" offset="0.71875"/><stop stop-opacity="1" stop-color="rgb(26.701355%, 27.72522%, 92.100525%)" offset="0.734375"/><stop stop-opacity="1" stop-color="rgb(26.699829%, 27.574158%, 91.900635%)" offset="0.75"/><stop stop-opacity="1" stop-color="rgb(26.699829%, 27.49939%, 91.697693%)" offset="0.765625"/><stop stop-opacity="1" stop-color="rgb(26.698303%, 27.497864%, 91.496277%)" offset="0.78125"/><stop stop-opacity="1" stop-color="rgb(26.501465%, 27.301025%, 91.200256%)" offset="0.8125"/><stop stop-opacity="1" stop-color="rgb(26.301575%, 27.102661%, 90.904236%)" offset="0.828125"/><stop stop-opacity="1" stop-color="rgb(26.298523%, 27.099609%, 90.70282%)" offset="0.84375"/><stop stop-opacity="1" stop-color="rgb(26.199341%, 27.000427%, 90.501404%)" offset="0.859375"/><stop stop-opacity="1" stop-color="rgb(25.999451%, 26.800537%, 90.299988%)" offset="0.875"/><stop stop-opacity="1" stop-color="rgb(25.898743%, 26.699829%, 90.098572%)" offset="0.890625"/><stop stop-opacity="1" stop-color="rgb(25.897217%, 26.698303%, 89.897156%)" offset="0.90625"/><stop stop-opacity="1" stop-color="rgb(25.700378%, 26.501465%, 89.601135%)" offset="0.9375"/><stop stop-opacity="1" stop-color="rgb(25.502014%, 26.301575%, 89.305115%)" offset="0.953125"/><stop stop-opacity="1" stop-color="rgb(25.498962%, 26.298523%, 89.103699%)" offset="0.96875"/><stop stop-opacity="1" stop-color="rgb(25.39978%, 26.199341%, 88.902283%)" offset="0.984375"/><stop stop-opacity="1" stop-color="rgb(25.19989%, 25.999451%, 88.699341%)" offset="1"/></linearGradient><clipPath id="43c69a1223"><path d="M 100.707031 161.050781 L 344.734375 161.050781 L 344.734375 180.355469 L 100.707031 180.355469 Z M 100.707031 161.050781 " clip-rule="nonzero"/></clipPath><clipPath id="cee5c954ee"><path d="M 344.460938 180.289062 L 344.691406 169.980469 C 344.800781 165.0625 339.921875 161.140625 333.859375 161.140625 L 111.59375 161.140625 C 105.613281 161.140625 100.761719 164.960938 100.757812 169.816406 L 100.75 180.289062 Z M 344.460938 180.289062 " clip-rule="nonzero"/></clipPath><clipPath id="8363a350c6"><path d="M 344.460938 180.289062 L 344.691406 169.984375 C 344.800781 165.0625 339.921875 161.144531 333.859375 161.144531 L 111.59375 161.144531 C 105.613281 161.144531 100.761719 164.960938 100.757812 169.816406 L 100.75 180.289062 L 344.460938 180.289062 " clip-rule="nonzero"/></clipPath><clipPath id="35cc12cda9"><path d="M 348.324219 161.8125 L 109.304688 116.296875 L 97.226562 179.621094 L 336.246094 225.136719 Z M 348.324219 161.8125 " clip-rule="nonzero"/></clipPath><linearGradient x1="0.524237" gradientTransform="matrix(-43.718148, 229.172007, -229.374289, -43.679593, 252.195886, 19.015457)" y1="0" x2="0.800492" gradientUnits="userSpaceOnUse" y2="0" id="852a5cd49a"><stop stop-opacity="1" stop-color="rgb(27.799988%, 28.993225%, 94.099426%)" offset="0"/><stop stop-opacity="1" stop-color="rgb(27.799988%, 28.894043%, 94.099426%)" offset="0.03125"/><stop stop-opacity="1" stop-color="rgb(27.799988%, 28.697205%, 94.0979%)" offset="0.0625"/><stop stop-opacity="1" stop-color="rgb(27.799988%, 28.599548%, 93.995667%)" offset="0.09375"/><stop stop-opacity="1" stop-color="rgb(27.796936%, 28.599548%, 93.797302%)" offset="0.125"/><stop stop-opacity="1" stop-color="rgb(27.645874%, 28.599548%, 93.696594%)" offset="0.1875"/><stop stop-opacity="1" stop-color="rgb(27.49939%, 28.599548%, 93.59436%)" offset="0.21875"/><stop stop-opacity="1" stop-color="rgb(27.49939%, 28.594971%, 93.395996%)" offset="0.25"/><stop stop-opacity="1" stop-color="rgb(27.49939%, 28.492737%, 93.299866%)" offset="0.28125"/><stop stop-opacity="1" stop-color="rgb(27.49939%, 28.295898%, 93.296814%)" offset="0.3125"/><stop stop-opacity="1" stop-color="rgb(27.49939%, 28.199768%, 93.19458%)" offset="0.34375"/><stop stop-opacity="1" stop-color="rgb(27.494812%, 28.199768%, 92.996216%)" offset="0.375"/><stop stop-opacity="1" stop-color="rgb(27.392578%, 28.199768%, 92.89856%)" offset="0.40625"/><stop stop-opacity="1" stop-color="rgb(27.19574%, 28.199768%, 92.895508%)" offset="0.4375"/><stop stop-opacity="1" stop-color="rgb(27.099609%, 28.199768%, 92.793274%)" offset="0.46875"/><stop stop-opacity="1" stop-color="rgb(27.099609%, 28.19519%, 92.59491%)" offset="0.5"/><stop stop-opacity="1" stop-color="rgb(27.095032%, 27.9953%, 92.349243%)" offset="0.625"/><stop stop-opacity="1" stop-color="rgb(26.895142%, 27.796936%, 92.195129%)" offset="0.6875"/><stop stop-opacity="1" stop-color="rgb(26.699829%, 27.71759%, 92.09137%)" offset="0.71875"/><stop stop-opacity="1" stop-color="rgb(26.699829%, 27.571106%, 91.894531%)" offset="0.75"/><stop stop-opacity="1" stop-color="rgb(26.699829%, 27.49939%, 91.795349%)" offset="0.8125"/><stop stop-opacity="1" stop-color="rgb(26.699829%, 27.49939%, 91.691589%)" offset="0.84375"/><stop stop-opacity="1" stop-color="rgb(26.693726%, 27.49939%, 91.494751%)" offset="0.875"/><stop stop-opacity="1" stop-color="rgb(26.493835%, 27.494812%, 91.394043%)" offset="0.9375"/><stop stop-opacity="1" stop-color="rgb(26.298523%, 27.389526%, 91.290283%)" offset="0.96875"/><stop stop-opacity="1" stop-color="rgb(26.298523%, 27.194214%, 91.093445%)" offset="1"/></linearGradient></defs><g clip-path="url(#e6bca00768)"><g clip-path="url(#55c66e0ced)"><g clip-path="url(#167f0eeaa3)"><g clip-path="url(#591f6212e4)"><path fill="url(#4a56a1037e)" d="M 243.296875 -157.753906 L -129.371094 108.355469 L 131.070312 485.3125 L 503.738281 219.203125 Z M 243.296875 -157.753906 " fill-rule="nonzero"/></g></g></g></g><path fill="#91b3fa" d="M 257.703125 206.785156 C 257.703125 206.785156 256.632812 162.027344 277.269531 150.046875 C 297.902344 138.0625 337.136719 130.574219 338.605469 66.304688 C 339.46875 28.679688 340.398438 12.226562 341.023438 5.054688 C 341.269531 2.253906 338.78125 -0.00390625 336.019531 0.515625 C 316.476562 4.195312 252.988281 19.335938 239.679688 62.625 C 223.902344 113.949219 257.703125 206.785156 257.703125 206.785156 " fill-opacity="1" fill-rule="nonzero"/><path fill="#afc8fb" d="M 274.078125 88.097656 L 274.296875 78.195312 C 287.730469 54.230469 305.214844 32.378906 320.902344 18.398438 C 321.058594 18.261719 321.253906 18.191406 321.445312 18.191406 C 321.648438 18.191406 321.851562 18.265625 322.007812 18.417969 C 323.3125 19.664062 320.375 19.796875 306.421875 37.695312 L 304.570312 40.042969 C 293.480469 54.707031 282.617188 70.988281 274.078125 88.097656 " fill-opacity="1" fill-rule="nonzero"/><path fill="#bdd0fb" d="M 224.542969 292.84375 C 221.75 294.210938 250.972656 257.496094 260.125 199.835938 C 264.4375 172.664062 264.492188 138.621094 279.984375 125.503906 C 292.878906 114.585938 336.753906 121.476562 351.105469 124.097656 C 352.902344 124.425781 353.503906 126.6875 352.109375 127.859375 C 345.222656 133.636719 330.5 147.261719 326.660156 160.992188 C 321.605469 179.09375 304.378906 190.605469 288.960938 193.71875 C 273.542969 196.835938 264.964844 199.859375 257.457031 224.496094 C 249.945312 249.132812 232.472656 288.957031 224.542969 292.84375 " fill-opacity="1" fill-rule="nonzero"/><path fill="#cfddfc" d="M 284.414062 158.886719 L 281.515625 158.886719 C 281.71875 158.519531 281.890625 158.222656 282.023438 158.011719 L 282.964844 156.515625 C 292.941406 140.855469 312.605469 132.507812 330.917969 131.742188 C 330.921875 131.742188 330.929688 131.742188 330.933594 131.742188 C 331.132812 131.742188 331.304688 131.894531 331.328125 132.097656 C 331.347656 132.3125 331.191406 132.507812 330.976562 132.53125 C 330.878906 132.53125 316.753906 133.429688 301.972656 141.816406 C 293.121094 147.007812 288.335938 152.355469 284.414062 158.886719 " fill-opacity="1" fill-rule="nonzero"/><g clip-path="url(#6350fce06e)"><g clip-path="url(#6d74f86e0b)"><g clip-path="url(#c6f0df83a3)"><path fill="#fe7062" d="M 38.808594 304.515625 L 23.597656 232.019531 L 78.609375 220.5 L 93.816406 292.996094 Z M 38.808594 304.515625 " fill-opacity="1" fill-rule="nonzero"/></g></g></g><g clip-path="url(#7f578b9c27)"><g clip-path="url(#3d5dfe5248)"><g clip-path="url(#cfceb260a4)"><path fill="#fe7062" d="M 30.804688 247.070312 L 24.328125 216.203125 L 52.605469 210.28125 L 59.082031 241.148438 Z M 30.804688 247.070312 " fill-opacity="1" fill-rule="nonzero"/></g></g></g><g clip-path="url(#aa59c603ca)"><g clip-path="url(#64468271fe)"><g clip-path="url(#db9e527e29)"><path fill="#fe7062" d="M 287.566406 47.300781 L 257.535156 120.753906 L 317.074219 145.054688 L 347.105469 71.597656 Z M 287.566406 47.300781 " fill-opacity="1" fill-rule="nonzero"/></g></g></g><g clip-path="url(#4dfddc5dd5)"><g clip-path="url(#893eb526a3)"><g clip-path="url(#5043ad6063)"><path fill="#fe7062" d="M 309.449219 106.703125 L 293.65625 145.328125 L 330.789062 160.480469 L 346.582031 121.859375 Z M 309.449219 106.703125 " fill-opacity="1" fill-rule="nonzero"/></g></g></g><g clip-path="url(#2cd0b0fc62)"><g clip-path="url(#5af2664ba1)"><g clip-path="url(#32ac183ad5)"><g clip-path="url(#feb2a2098a)"><path fill="url(#0190166a84)" d="M 305.144531 34.609375 L 31.699219 -15.890625 L -6.585938 191.039062 L 266.859375 241.539062 Z M 305.144531 34.609375 " fill-rule="nonzero"/></g></g></g></g><g clip-path="url(#37514dd8a1)"><g clip-path="url(#cc1628ae92)"><g clip-path="url(#044d2cb8a5)"><g clip-path="url(#93570e90f3)"><path fill="url(#8455b55be9)" d="M 282.5625 52.890625 L 30.695312 31.003906 L 16.765625 191.074219 L 268.628906 212.957031 Z M 282.5625 52.890625 " fill-rule="nonzero"/></g></g></g></g><g clip-path="url(#f70e9a705e)"><g clip-path="url(#66e40b774c)"><g clip-path="url(#7d06346af7)"><g clip-path="url(#c496a41302)"><path fill="url(#1a065806e1)" d="M 274.917969 32.917969 L 31.792969 6.222656 L 26.800781 51.605469 L 269.929688 78.300781 Z M 274.917969 32.917969 " fill-rule="nonzero"/></g></g></g></g><g clip-path="url(#49146942f1)"><g clip-path="url(#d7efcdaa92)"><g clip-path="url(#b131cd0076)"><g clip-path="url(#75dbcd2f28)"><path fill="url(#adba6023de)" d="M 209.789062 39.550781 L 109.761719 28.570312 L 107.714844 47.1875 L 207.742188 58.171875 Z M 209.789062 39.550781 " fill-rule="nonzero"/></g></g></g></g><g clip-path="url(#e8e0e9a390)"><g clip-path="url(#b0b5134e13)"><g clip-path="url(#9ff5bab4ae)"><g clip-path="url(#bae5809fe5)"><path fill="url(#c14c728446)" d="M 187.121094 68.503906 L 41.855469 51.953125 L 31.335938 144.097656 L 176.605469 160.652344 Z M 187.121094 68.503906 " fill-rule="nonzero"/></g></g></g></g><g clip-path="url(#23d7cc3fb9)"><g clip-path="url(#f3bfaa1932)"><g clip-path="url(#24eb75648c)"><g clip-path="url(#5a38482287)"><path fill="url(#63f5ffa5ef)" d="M 184.316406 149.292969 L 116.457031 143.398438 L 115.117188 158.8125 L 182.972656 164.707031 Z M 184.316406 149.292969 " fill-rule="nonzero"/></g></g></g></g><g clip-path="url(#a9ae6c2ee8)"><g clip-path="url(#f7633ae30c)"><g clip-path="url(#41a287305a)"><g clip-path="url(#4aa007d7a3)"><path fill="url(#fe57c0bf6b)" d="M 110.59375 149.277344 L 39.785156 143.125 L 35.738281 189.628906 L 106.546875 195.78125 Z M 110.59375 149.277344 " fill-rule="nonzero"/></g></g></g></g><g clip-path="url(#b023a77fa4)"><g clip-path="url(#bfd0daaf29)"><g clip-path="url(#7a1d0ad99f)"><g clip-path="url(#16d1120361)"><path fill="url(#b1b14262d2)" d="M 259.875 150.390625 L 192.125 144.503906 L 190.878906 158.820312 L 258.628906 164.707031 Z M 259.875 150.390625 " fill-rule="nonzero"/></g></g></g></g><g clip-path="url(#01dbf3b0e4)"><g clip-path="url(#970c36ab0a)"><g clip-path="url(#ecff64d6c7)"><g clip-path="url(#68fa299422)"><path fill="url(#f07f6b9243)" d="M 264.1875 68.085938 L 186.488281 61.335938 L 179.300781 143.90625 L 257 150.65625 Z M 264.1875 68.085938 " fill-rule="nonzero"/></g></g></g></g><path fill="#ffffff" d="M 78.191406 36.261719 C 75.890625 36.261719 74.023438 38.128906 74.023438 40.425781 C 74.023438 42.726562 75.890625 44.59375 78.191406 44.59375 C 80.492188 44.59375 82.363281 42.726562 82.363281 40.425781 C 82.363281 38.128906 80.492188 36.261719 78.191406 36.261719 Z M 78.191406 45.390625 C 75.453125 45.390625 73.222656 43.164062 73.222656 40.425781 C 73.222656 37.691406 75.453125 35.460938 78.191406 35.460938 C 80.933594 35.460938 83.160156 37.691406 83.160156 40.425781 C 83.160156 43.164062 80.933594 45.390625 78.191406 45.390625 " fill-opacity="1" fill-rule="nonzero"/><path fill="#ffffff" d="M 62.375 36.632812 C 60.074219 36.632812 58.203125 38.503906 58.203125 40.800781 C 58.203125 43.097656 60.074219 44.96875 62.375 44.96875 C 64.675781 44.96875 66.542969 43.097656 66.542969 40.800781 C 66.542969 38.503906 64.675781 36.632812 62.375 36.632812 Z M 62.375 45.765625 C 59.632812 45.765625 57.40625 43.535156 57.40625 40.800781 C 57.40625 38.0625 59.632812 35.835938 62.375 35.835938 C 65.113281 35.835938 67.34375 38.0625 67.34375 40.800781 C 67.34375 43.535156 65.113281 45.765625 62.375 45.765625 " fill-opacity="1" fill-rule="nonzero"/><path fill="#ffffff" d="M 47.175781 36.632812 C 44.875 36.632812 43.003906 38.503906 43.003906 40.800781 C 43.003906 43.097656 44.875 44.96875 47.175781 44.96875 C 49.476562 44.96875 51.347656 43.097656 51.347656 40.800781 C 51.347656 38.503906 49.476562 36.632812 47.175781 36.632812 Z M 47.175781 45.765625 C 44.433594 45.765625 42.207031 43.535156 42.207031 40.800781 C 42.207031 38.0625 44.433594 35.835938 47.175781 35.835938 C 49.914062 35.835938 52.144531 38.0625 52.144531 40.800781 C 52.144531 43.535156 49.914062 45.765625 47.175781 45.765625 " fill-opacity="1" fill-rule="nonzero"/><g clip-path="url(#0e97d5f093)"><g clip-path="url(#50fc82cf6a)"><g clip-path="url(#84f6f23161)"><g clip-path="url(#7c05319630)"><path fill="url(#179cd92f92)" d="M 127.96875 95.386719 L 101.152344 92.332031 L 98.09375 119.125 L 124.910156 122.179688 Z M 127.96875 95.386719 " fill-rule="nonzero"/></g></g></g></g><g clip-path="url(#50148841c0)"><g clip-path="url(#201831afed)"><g clip-path="url(#cad0302c45)"><g clip-path="url(#49d7aec03f)"><path fill="url(#b1ecc2e9ee)" d="M 122.824219 101.121094 L 108.90625 99.535156 L 107.34375 113.214844 L 121.261719 114.800781 Z M 122.824219 101.121094 " fill-rule="nonzero"/></g></g></g></g><g clip-path="url(#7519d40b2a)"><g clip-path="url(#e29be8a2dc)"><g clip-path="url(#b38505921e)"><g clip-path="url(#b0e0c0098c)"><path fill="url(#e011ae357e)" d="M 430.527344 230.824219 L 202.160156 34.507812 L 11.367188 256.0625 L 239.734375 452.378906 Z M 430.527344 230.824219 " fill-rule="nonzero"/></g></g></g></g><path fill="#91b3fa" d="M 111.394531 162.875 L 331.601562 162.875 C 337.605469 162.875 342.441406 166.910156 342.332031 171.828125 L 339.234375 311.796875 C 339.085938 318.386719 332.476562 323.640625 324.433594 323.558594 L 111.15625 321.363281 C 105.28125 321.304688 100.554688 317.382812 100.558594 312.566406 L 100.660156 171.664062 C 100.664062 166.808594 105.46875 162.875 111.394531 162.875 " fill-opacity="1" fill-rule="nonzero"/><g clip-path="url(#ea00f4b497)"><g clip-path="url(#7eb3b08a3a)"><g clip-path="url(#a1a0ada646)"><path fill="url(#abd504d517)" d="M 111.75 197.265625 L 111.75 274.902344 L 250.050781 274.902344 L 250.050781 197.265625 Z M 111.75 197.265625 " fill-rule="nonzero"/></g></g></g><path fill="#afc8fb" d="M 251.1875 320.066406 C 251.167969 320.066406 251.152344 320.066406 251.136719 320.066406 L 191.042969 319.566406 C 189.011719 319.550781 187.375 318.546875 187.382812 317.328125 L 187.683594 281.207031 C 187.695312 280.011719 189.292969 279.046875 191.285156 279.03125 L 250.625 279.902344 C 253.140625 279.941406 255.152344 281.183594 255.140625 282.695312 L 254.828125 317.886719 C 254.816406 319.097656 253.195312 320.066406 251.1875 320.066406 " fill-opacity="1" fill-rule="nonzero"/><path fill="#afc8fb" d="M 174.757812 319.8125 C 174.738281 319.8125 174.722656 319.8125 174.707031 319.8125 L 114.617188 319.3125 C 112.585938 319.296875 110.945312 318.292969 110.957031 317.074219 L 111.257812 280.953125 C 111.265625 279.757812 112.863281 278.792969 114.855469 278.777344 L 174.199219 279.652344 C 176.710938 279.6875 178.726562 280.933594 178.710938 282.441406 L 178.402344 317.636719 C 178.390625 318.84375 176.765625 319.8125 174.757812 319.8125 " fill-opacity="1" fill-rule="nonzero"/><path fill="#afc8fb" d="M 326.839844 321.171875 C 326.824219 321.171875 326.804688 321.171875 326.789062 321.171875 L 266.699219 320.671875 C 264.667969 320.65625 263.03125 319.652344 263.042969 318.433594 L 263.34375 282.3125 C 263.351562 281.117188 264.949219 280.152344 266.941406 280.136719 L 326.285156 281.007812 C 328.796875 281.046875 330.808594 282.289062 330.796875 283.800781 L 330.484375 318.996094 C 330.476562 320.203125 328.847656 321.171875 326.839844 321.171875 " fill-opacity="1" fill-rule="nonzero"/><path fill="#afc8fb" d="M 322.457031 274.292969 L 264.375 274.292969 C 260.644531 274.292969 257.625 272.324219 257.625 269.898438 L 257.625 201.246094 C 257.625 199.203125 260.074219 197.546875 263.109375 197.535156 L 322.75 197.316406 C 326.363281 197.421875 329.210938 199.359375 329.210938 201.710938 L 329.210938 269.898438 C 329.210938 272.324219 326.183594 274.292969 322.457031 274.292969 " fill-opacity="1" fill-rule="nonzero"/><path fill="#bdd0fb" d="M 184.710938 225.601562 C 178.375 225.601562 173.230469 230.742188 173.230469 237.058594 C 173.230469 243.386719 178.375 248.527344 184.695312 248.527344 C 191.03125 248.527344 196.175781 243.386719 196.175781 237.070312 L 196.175781 237.058594 C 196.175781 230.742188 191.03125 225.601562 184.710938 225.601562 Z M 184.710938 249.246094 C 177.976562 249.246094 172.511719 243.785156 172.511719 237.070312 C 172.511719 230.34375 177.976562 224.882812 184.695312 224.882812 C 191.429688 224.882812 196.894531 230.34375 196.894531 237.058594 L 196.894531 237.070312 C 196.894531 243.785156 191.429688 249.246094 184.710938 249.246094 " fill-opacity="1" fill-rule="nonzero"/><path fill="#bdd0fb" d="M 181.339844 243.183594 C 181 243.183594 180.71875 242.914062 180.707031 242.570312 L 180.421875 231.816406 C 180.410156 231.460938 180.585938 231.132812 180.878906 230.941406 C 181.179688 230.746094 181.546875 230.71875 181.867188 230.867188 L 192.5 235.835938 C 192.851562 236.003906 193.078125 236.34375 193.085938 236.730469 C 193.097656 237.117188 192.890625 237.472656 192.546875 237.652344 L 183.164062 242.652344 C 182.855469 242.816406 182.472656 242.699219 182.308594 242.394531 C 182.144531 242.085938 182.261719 241.703125 182.570312 241.539062 L 191.519531 236.773438 L 181.695312 232.179688 L 181.972656 242.535156 C 181.980469 242.882812 181.707031 243.171875 181.359375 243.183594 L 181.339844 243.183594 " fill-opacity="1" fill-rule="nonzero"/><g clip-path="url(#43c69a1223)"><g clip-path="url(#cee5c954ee)"><g clip-path="url(#8363a350c6)"><g clip-path="url(#35cc12cda9)"><path fill="url(#852a5cd49a)" d="M 348.261719 161.8125 L 109.304688 116.308594 L 97.226562 179.621094 L 336.183594 225.125 Z M 348.261719 161.8125 " fill-rule="nonzero"/></g></g></g></g><path fill="#7d97f4" d="M 277.980469 175.636719 L 183.261719 175.636719 C 181.699219 176.078125 180.433594 175.027344 180.433594 173.730469 L 180.433594 170.257812 C 180.433594 168.964844 181.699219 167.914062 183.261719 167.914062 L 277.980469 167.914062 C 279.542969 167.914062 280.808594 168.964844 280.808594 170.257812 L 280.808594 173.730469 C 280.808594 175.027344 279.542969 176.078125 277.980469 175.636719 " fill-opacity="1" fill-rule="nonzero"/><path fill="#bdd0fb" d="M 150.0625 164.714844 C 147.761719 164.714844 145.890625 166.585938 145.890625 168.882812 C 145.890625 171.179688 147.761719 173.050781 150.0625 173.050781 C 152.363281 173.050781 154.234375 171.179688 154.234375 168.882812 C 154.234375 166.585938 152.363281 164.714844 150.0625 164.714844 Z M 150.0625 173.847656 C 147.324219 173.847656 145.09375 171.621094 145.09375 168.882812 C 145.09375 166.144531 147.324219 163.917969 150.0625 163.917969 C 152.804688 163.917969 155.03125 166.144531 155.03125 168.882812 C 155.03125 171.621094 152.804688 173.847656 150.0625 173.847656 " fill-opacity="1" fill-rule="nonzero"/><path fill="#bdd0fb" d="M 134.246094 165.085938 C 131.945312 165.085938 130.074219 166.957031 130.074219 169.253906 C 130.074219 171.550781 131.945312 173.421875 134.246094 173.421875 C 136.542969 173.421875 138.414062 171.550781 138.414062 169.253906 C 138.414062 166.957031 136.542969 165.085938 134.246094 165.085938 Z M 134.246094 174.21875 C 131.503906 174.21875 129.277344 171.992188 129.277344 169.253906 C 129.277344 166.515625 131.503906 164.289062 134.246094 164.289062 C 136.984375 164.289062 139.214844 166.515625 139.214844 169.253906 C 139.214844 171.992188 136.984375 174.21875 134.246094 174.21875 " fill-opacity="1" fill-rule="nonzero"/><path fill="#bdd0fb" d="M 119.042969 165.085938 C 116.746094 165.085938 114.875 166.957031 114.875 169.253906 C 114.875 171.550781 116.746094 173.421875 119.042969 173.421875 C 121.34375 173.421875 123.214844 171.550781 123.214844 169.253906 C 123.214844 166.957031 121.34375 165.085938 119.042969 165.085938 Z M 119.042969 174.21875 C 116.304688 174.21875 114.074219 171.992188 114.074219 169.253906 C 114.074219 166.515625 116.304688 164.289062 119.042969 164.289062 C 121.785156 164.289062 124.015625 166.515625 124.015625 169.253906 C 124.015625 171.992188 121.785156 174.21875 119.042969 174.21875 " fill-opacity="1" fill-rule="nonzero"/></svg>