<svg xmlns="http://www.w3.org/2000/svg" xmlns:xlink="http://www.w3.org/1999/xlink" width="800" zoomAndPan="magnify" viewBox="0 0 600 458.999989" height="612" preserveAspectRatio="xMidYMid meet" version="1.0"><defs><clipPath id="10522c2d40"><path d="M 168.453125 409 L 431.703125 409 L 431.703125 416.671875 L 168.453125 416.671875 Z M 168.453125 409 " clip-rule="nonzero"/></clipPath><clipPath id="b4b08f364a"><path d="M 56.328125 42.480469 L 543.828125 42.480469 L 543.828125 338 L 56.328125 338 Z M 56.328125 42.480469 " clip-rule="nonzero"/></clipPath><clipPath id="7e10b201f4"><path d="M 331 42.480469 L 543.828125 42.480469 L 543.828125 338 L 331 338 Z M 331 42.480469 " clip-rule="nonzero"/></clipPath></defs><g clip-path="url(#10522c2d40)"><path fill="#999999" d="M 168.703125 416.671875 L 168.703125 411.75 L 169.824219 411.710938 C 192.898438 410.875 219.996094 410.261719 248.183594 409.941406 C 264.695312 409.75 282.15625 409.648438 300.078125 409.648438 C 318 409.648438 335.460938 409.75 351.972656 409.941406 C 380.15625 410.261719 407.257812 410.875 430.332031 411.710938 L 431.453125 411.75 L 431.453125 416.671875 L 168.703125 416.671875 " fill-opacity="1" fill-rule="nonzero"/></g><path fill="#999999" d="M 344.507812 394.519531 L 255.648438 394.519531 L 255.648438 333.722656 L 344.507812 333.722656 L 344.507812 394.519531 " fill-opacity="1" fill-rule="nonzero"/><path fill="#e5e5e5" d="M 441.59375 413.734375 C 437.933594 413.601562 434.128906 413.46875 430.199219 413.335938 C 407.15625 412.605469 380.085938 412.070312 351.933594 411.789062 C 335.433594 411.625 317.984375 411.539062 300.078125 411.539062 C 282.167969 411.539062 264.722656 411.625 248.222656 411.789062 C 220.066406 412.070312 193.003906 412.605469 169.949219 413.335938 C 166.023438 413.46875 162.222656 413.601562 158.558594 413.734375 L 157.484375 413.777344 L 157.316406 413.152344 C 157.058594 412.183594 156.925781 411.183594 156.925781 410.179688 C 156.925781 406.441406 158.605469 402.871094 161.914062 399.566406 L 162.183594 399.300781 L 162.710938 399.238281 C 183.859375 396.792969 208.425781 394.960938 235.734375 393.808594 C 256.421875 392.941406 278.585938 392.5 300.078125 392.5 C 322.085938 392.5 343.734375 392.941406 364.421875 393.808594 C 391.726562 394.960938 416.292969 396.792969 437.445312 399.238281 L 437.972656 399.300781 L 438.238281 399.566406 C 441.550781 402.871094 443.234375 406.441406 443.234375 410.179688 C 443.234375 411.183594 443.097656 412.183594 442.839844 413.152344 L 442.671875 413.777344 L 441.59375 413.734375 " fill-opacity="1" fill-rule="nonzero"/><g clip-path="url(#b4b08f364a)"><path fill="#275163" d="M 529.445312 42.570312 L 70.710938 42.570312 C 62.78125 42.570312 56.328125 49.023438 56.328125 56.957031 L 56.328125 322.6875 C 56.328125 330.625 62.78125 337.078125 70.710938 337.078125 L 529.445312 337.078125 C 537.371094 337.078125 543.828125 330.625 543.828125 322.6875 L 543.828125 56.957031 C 543.828125 49.023438 537.371094 42.570312 529.445312 42.570312 " fill-opacity="1" fill-rule="nonzero"/></g><g clip-path="url(#7e10b201f4)"><path fill="#426f80" d="M 398.050781 337.078125 L 529.445312 337.078125 C 537.371094 337.078125 543.828125 330.625 543.828125 322.6875 L 543.828125 56.957031 C 543.828125 49.023438 537.371094 42.570312 529.445312 42.570312 L 331.265625 42.570312 L 398.050781 337.078125 " fill-opacity="1" fill-rule="nonzero"/></g><path fill="#ffffff" d="M 76.152344 315.742188 L 76.152344 63.582031 L 524.007812 63.582031 L 524.007812 315.742188 L 76.152344 315.742188 " fill-opacity="1" fill-rule="nonzero"/><path fill="#f59e4a" d="M 182.320312 262.980469 L 79.976562 262.980469 L 79.976562 244.828125 L 182.320312 244.828125 L 182.320312 262.980469 " fill-opacity="1" fill-rule="nonzero"/><path fill="#cccccc" d="M 99.890625 269.144531 L 80.210938 269.144531 L 80.210938 265.425781 L 99.890625 265.425781 L 99.890625 269.144531 " fill-opacity="1" fill-rule="nonzero"/><path fill="#cccccc" d="M 149.027344 269.144531 L 140.863281 269.144531 L 140.863281 265.425781 L 149.027344 265.425781 L 149.027344 269.144531 " fill-opacity="1" fill-rule="nonzero"/><path fill="#cccccc" d="M 179.746094 269.144531 L 171.582031 269.144531 L 171.582031 265.425781 L 179.746094 265.425781 L 179.746094 269.144531 " fill-opacity="1" fill-rule="nonzero"/><path fill="#cccccc" d="M 170.273438 269.144531 L 150.664062 269.144531 L 150.664062 265.425781 L 170.273438 265.425781 L 170.273438 269.144531 " fill-opacity="1" fill-rule="nonzero"/><path fill="#cccccc" d="M 138.984375 269.144531 L 102.867188 269.144531 L 102.867188 265.425781 L 138.984375 265.425781 L 138.984375 269.144531 " fill-opacity="1" fill-rule="nonzero"/><path fill="#cccccc" d="M 160.066406 292.570312 L 179.746094 292.570312 L 179.746094 288.851562 L 160.066406 288.851562 L 160.066406 292.570312 " fill-opacity="1" fill-rule="nonzero"/><path fill="#cccccc" d="M 110.933594 292.570312 L 119.097656 292.570312 L 119.097656 288.851562 L 110.933594 288.851562 L 110.933594 292.570312 " fill-opacity="1" fill-rule="nonzero"/><path fill="#cccccc" d="M 80.210938 292.570312 L 88.375 292.570312 L 88.375 288.851562 L 80.210938 288.851562 L 80.210938 292.570312 " fill-opacity="1" fill-rule="nonzero"/><path fill="#cccccc" d="M 89.6875 292.570312 L 109.292969 292.570312 L 109.292969 288.851562 L 89.6875 288.851562 L 89.6875 292.570312 " fill-opacity="1" fill-rule="nonzero"/><path fill="#cccccc" d="M 120.976562 292.570312 L 157.09375 292.570312 L 157.09375 288.851562 L 120.976562 288.851562 L 120.976562 292.570312 " fill-opacity="1" fill-rule="nonzero"/><path fill="#cccccc" d="M 94.113281 276.949219 L 80.210938 276.949219 L 80.210938 273.238281 L 94.113281 273.238281 L 94.113281 276.949219 " fill-opacity="1" fill-rule="nonzero"/><path fill="#cccccc" d="M 158.175781 276.949219 L 137.59375 276.949219 L 137.59375 273.238281 L 158.175781 273.238281 L 158.175781 276.949219 " fill-opacity="1" fill-rule="nonzero"/><path fill="#cccccc" d="M 179.746094 276.949219 L 160.46875 276.949219 L 160.46875 273.238281 L 179.746094 273.238281 L 179.746094 276.949219 " fill-opacity="1" fill-rule="nonzero"/><path fill="#cccccc" d="M 136.28125 276.949219 L 119.378906 276.949219 L 119.378906 273.238281 L 136.28125 273.238281 L 136.28125 276.949219 " fill-opacity="1" fill-rule="nonzero"/><path fill="#cccccc" d="M 117.484375 276.949219 L 96 276.949219 L 96 273.238281 L 117.484375 273.238281 L 117.484375 276.949219 " fill-opacity="1" fill-rule="nonzero"/><path fill="#cccccc" d="M 101.78125 300.378906 L 122.367188 300.378906 L 122.367188 296.664062 L 101.78125 296.664062 L 101.78125 300.378906 " fill-opacity="1" fill-rule="nonzero"/><path fill="#cccccc" d="M 80.210938 300.378906 L 99.492188 300.378906 L 99.492188 296.664062 L 80.210938 296.664062 L 80.210938 300.378906 " fill-opacity="1" fill-rule="nonzero"/><path fill="#cccccc" d="M 123.683594 300.378906 L 140.582031 300.378906 L 140.582031 296.664062 L 123.683594 296.664062 L 123.683594 300.378906 " fill-opacity="1" fill-rule="nonzero"/><path fill="#cccccc" d="M 142.476562 300.378906 L 163.957031 300.378906 L 163.957031 296.664062 L 142.476562 296.664062 L 142.476562 300.378906 " fill-opacity="1" fill-rule="nonzero"/><path fill="#cccccc" d="M 87.242188 284.761719 L 80.210938 284.761719 L 80.210938 281.046875 L 87.242188 281.046875 L 87.242188 284.761719 " fill-opacity="1" fill-rule="nonzero"/><path fill="#cccccc" d="M 150.324219 284.761719 L 136.738281 284.761719 L 136.738281 281.046875 L 150.324219 281.046875 L 150.324219 284.761719 " fill-opacity="1" fill-rule="nonzero"/><path fill="#cccccc" d="M 179.648438 284.761719 L 166.058594 284.761719 L 166.058594 281.046875 L 179.648438 281.046875 L 179.648438 284.761719 " fill-opacity="1" fill-rule="nonzero"/><path fill="#cccccc" d="M 164.289062 284.761719 L 152.125 284.761719 L 152.125 281.046875 L 164.289062 281.046875 L 164.289062 284.761719 " fill-opacity="1" fill-rule="nonzero"/><path fill="#cccccc" d="M 134.683594 284.761719 L 129.5625 284.761719 L 129.5625 281.046875 L 134.683594 281.046875 L 134.683594 284.761719 " fill-opacity="1" fill-rule="nonzero"/><path fill="#cccccc" d="M 127.667969 284.761719 L 89.378906 284.761719 L 89.378906 281.046875 L 127.667969 281.046875 L 127.667969 284.761719 " fill-opacity="1" fill-rule="nonzero"/><path fill="#999999" d="M 182.320312 311.113281 L 79.976562 311.113281 L 79.976562 305.351562 L 182.320312 305.351562 L 182.320312 311.113281 " fill-opacity="1" fill-rule="nonzero"/><path fill="#87bec9" d="M 294.945312 262.980469 L 192.597656 262.980469 L 192.597656 244.828125 L 294.945312 244.828125 L 294.945312 262.980469 " fill-opacity="1" fill-rule="nonzero"/><path fill="#999999" d="M 294.945312 311.113281 L 192.597656 311.113281 L 192.597656 305.351562 L 294.945312 305.351562 L 294.945312 311.113281 " fill-opacity="1" fill-rule="nonzero"/><path fill="#cccccc" d="M 212.273438 301.214844 L 192.597656 301.214844 L 192.597656 297.5 L 212.273438 297.5 L 212.273438 301.214844 " fill-opacity="1" fill-rule="nonzero"/><path fill="#cccccc" d="M 261.40625 301.214844 L 253.246094 301.214844 L 253.246094 297.5 L 261.40625 297.5 L 261.40625 301.214844 " fill-opacity="1" fill-rule="nonzero"/><path fill="#cccccc" d="M 251.363281 301.214844 L 215.25 301.214844 L 215.25 297.5 L 251.363281 297.5 L 251.363281 301.214844 " fill-opacity="1" fill-rule="nonzero"/><path fill="#cccccc" d="M 272.449219 269.460938 L 292.128906 269.460938 L 292.128906 265.746094 L 272.449219 265.746094 L 272.449219 269.460938 " fill-opacity="1" fill-rule="nonzero"/><path fill="#cccccc" d="M 223.316406 269.460938 L 231.480469 269.460938 L 231.480469 265.746094 L 223.316406 265.746094 L 223.316406 269.460938 " fill-opacity="1" fill-rule="nonzero"/><path fill="#cccccc" d="M 192.597656 269.460938 L 200.757812 269.460938 L 200.757812 265.746094 L 192.597656 265.746094 L 192.597656 269.460938 " fill-opacity="1" fill-rule="nonzero"/><path fill="#cccccc" d="M 202.066406 269.460938 L 221.675781 269.460938 L 221.675781 265.746094 L 202.066406 265.746094 L 202.066406 269.460938 " fill-opacity="1" fill-rule="nonzero"/><path fill="#cccccc" d="M 233.355469 269.460938 L 269.476562 269.460938 L 269.476562 265.746094 L 233.355469 265.746094 L 233.355469 269.460938 " fill-opacity="1" fill-rule="nonzero"/><path fill="#cccccc" d="M 206.496094 285.335938 L 192.597656 285.335938 L 192.597656 281.621094 L 206.496094 281.621094 L 206.496094 285.335938 " fill-opacity="1" fill-rule="nonzero"/><path fill="#cccccc" d="M 270.558594 285.335938 L 249.976562 285.335938 L 249.976562 281.621094 L 270.558594 281.621094 L 270.558594 285.335938 " fill-opacity="1" fill-rule="nonzero"/><path fill="#cccccc" d="M 292.128906 285.335938 L 272.851562 285.335938 L 272.851562 281.621094 L 292.128906 281.621094 L 292.128906 285.335938 " fill-opacity="1" fill-rule="nonzero"/><path fill="#cccccc" d="M 248.660156 285.335938 L 231.757812 285.335938 L 231.757812 281.621094 L 248.660156 281.621094 L 248.660156 285.335938 " fill-opacity="1" fill-rule="nonzero"/><path fill="#cccccc" d="M 229.867188 285.335938 L 208.386719 285.335938 L 208.386719 281.621094 L 229.867188 281.621094 L 229.867188 285.335938 " fill-opacity="1" fill-rule="nonzero"/><path fill="#cccccc" d="M 214.164062 277.398438 L 234.746094 277.398438 L 234.746094 273.683594 L 214.164062 273.683594 L 214.164062 277.398438 " fill-opacity="1" fill-rule="nonzero"/><path fill="#cccccc" d="M 192.597656 277.398438 L 211.871094 277.398438 L 211.871094 273.683594 L 192.597656 273.683594 L 192.597656 277.398438 " fill-opacity="1" fill-rule="nonzero"/><path fill="#cccccc" d="M 236.0625 277.398438 L 252.964844 277.398438 L 252.964844 273.683594 L 236.0625 273.683594 L 236.0625 277.398438 " fill-opacity="1" fill-rule="nonzero"/><path fill="#cccccc" d="M 254.859375 277.398438 L 276.339844 277.398438 L 276.339844 273.683594 L 254.859375 273.683594 L 254.859375 277.398438 " fill-opacity="1" fill-rule="nonzero"/><path fill="#cccccc" d="M 277.773438 277.398438 L 291.957031 277.398438 L 291.957031 273.683594 L 277.773438 273.683594 L 277.773438 277.398438 " fill-opacity="1" fill-rule="nonzero"/><path fill="#cccccc" d="M 199.621094 293.273438 L 192.597656 293.273438 L 192.597656 289.5625 L 199.621094 289.5625 L 199.621094 293.273438 " fill-opacity="1" fill-rule="nonzero"/><path fill="#cccccc" d="M 262.710938 293.273438 L 249.117188 293.273438 L 249.117188 289.5625 L 262.710938 289.5625 L 262.710938 293.273438 " fill-opacity="1" fill-rule="nonzero"/><path fill="#cccccc" d="M 292.027344 293.273438 L 278.4375 293.273438 L 278.4375 289.5625 L 292.027344 289.5625 L 292.027344 293.273438 " fill-opacity="1" fill-rule="nonzero"/><path fill="#cccccc" d="M 276.671875 293.273438 L 264.511719 293.273438 L 264.511719 289.5625 L 276.671875 289.5625 L 276.671875 293.273438 " fill-opacity="1" fill-rule="nonzero"/><path fill="#cccccc" d="M 247.066406 293.273438 L 241.941406 293.273438 L 241.941406 289.5625 L 247.066406 289.5625 L 247.066406 293.273438 " fill-opacity="1" fill-rule="nonzero"/><path fill="#cccccc" d="M 240.046875 293.273438 L 201.761719 293.273438 L 201.761719 289.5625 L 240.046875 289.5625 L 240.046875 293.273438 " fill-opacity="1" fill-rule="nonzero"/><path fill="#a95de3" d="M 407.5625 262.980469 L 305.214844 262.980469 L 305.214844 244.828125 L 407.5625 244.828125 L 407.5625 262.980469 " fill-opacity="1" fill-rule="nonzero"/><path fill="#999999" d="M 407.5625 311.113281 L 305.214844 311.113281 L 305.214844 305.351562 L 407.5625 305.351562 L 407.5625 311.113281 " fill-opacity="1" fill-rule="nonzero"/><path fill="#cccccc" d="M 324.894531 270.582031 L 305.214844 270.582031 L 305.214844 266.867188 L 324.894531 266.867188 L 324.894531 270.582031 " fill-opacity="1" fill-rule="nonzero"/><path fill="#cccccc" d="M 374.027344 270.582031 L 365.863281 270.582031 L 365.863281 266.867188 L 374.027344 266.867188 L 374.027344 270.582031 " fill-opacity="1" fill-rule="nonzero"/><path fill="#cccccc" d="M 404.746094 270.582031 L 396.585938 270.582031 L 396.585938 266.867188 L 404.746094 266.867188 L 404.746094 270.582031 " fill-opacity="1" fill-rule="nonzero"/><path fill="#cccccc" d="M 395.277344 270.582031 L 375.667969 270.582031 L 375.667969 266.867188 L 395.277344 266.867188 L 395.277344 270.582031 " fill-opacity="1" fill-rule="nonzero"/><path fill="#cccccc" d="M 363.988281 270.582031 L 327.867188 270.582031 L 327.867188 266.867188 L 363.988281 266.867188 L 363.988281 270.582031 " fill-opacity="1" fill-rule="nonzero"/><path fill="#cccccc" d="M 385.070312 294.007812 L 404.746094 294.007812 L 404.746094 290.292969 L 385.070312 290.292969 L 385.070312 294.007812 " fill-opacity="1" fill-rule="nonzero"/><path fill="#cccccc" d="M 335.933594 294.007812 L 344.097656 294.007812 L 344.097656 290.292969 L 335.933594 290.292969 L 335.933594 294.007812 " fill-opacity="1" fill-rule="nonzero"/><path fill="#cccccc" d="M 305.214844 294.007812 L 313.378906 294.007812 L 313.378906 290.292969 L 305.214844 290.292969 L 305.214844 294.007812 " fill-opacity="1" fill-rule="nonzero"/><path fill="#cccccc" d="M 314.691406 294.007812 L 334.296875 294.007812 L 334.296875 290.292969 L 314.691406 290.292969 L 314.691406 294.007812 " fill-opacity="1" fill-rule="nonzero"/><path fill="#cccccc" d="M 345.976562 294.007812 L 382.09375 294.007812 L 382.09375 290.292969 L 345.976562 290.292969 L 345.976562 294.007812 " fill-opacity="1" fill-rule="nonzero"/><path fill="#cccccc" d="M 319.117188 278.390625 L 305.214844 278.390625 L 305.214844 274.671875 L 319.117188 274.671875 L 319.117188 278.390625 " fill-opacity="1" fill-rule="nonzero"/><path fill="#cccccc" d="M 383.179688 278.390625 L 362.597656 278.390625 L 362.597656 274.671875 L 383.179688 274.671875 L 383.179688 278.390625 " fill-opacity="1" fill-rule="nonzero"/><path fill="#cccccc" d="M 404.746094 278.390625 L 385.472656 278.390625 L 385.472656 274.671875 L 404.746094 274.671875 L 404.746094 278.390625 " fill-opacity="1" fill-rule="nonzero"/><path fill="#cccccc" d="M 361.28125 278.390625 L 344.378906 278.390625 L 344.378906 274.671875 L 361.28125 274.671875 L 361.28125 278.390625 " fill-opacity="1" fill-rule="nonzero"/><path fill="#cccccc" d="M 342.484375 278.390625 L 321.003906 278.390625 L 321.003906 274.671875 L 342.484375 274.671875 L 342.484375 278.390625 " fill-opacity="1" fill-rule="nonzero"/><path fill="#cccccc" d="M 326.785156 301.816406 L 347.367188 301.816406 L 347.367188 298.097656 L 326.785156 298.097656 L 326.785156 301.816406 " fill-opacity="1" fill-rule="nonzero"/><path fill="#cccccc" d="M 305.214844 301.816406 L 324.492188 301.816406 L 324.492188 298.097656 L 305.214844 298.097656 L 305.214844 301.816406 " fill-opacity="1" fill-rule="nonzero"/><path fill="#cccccc" d="M 348.683594 301.816406 L 365.585938 301.816406 L 365.585938 298.097656 L 348.683594 298.097656 L 348.683594 301.816406 " fill-opacity="1" fill-rule="nonzero"/><path fill="#cccccc" d="M 367.476562 301.816406 L 388.960938 301.816406 L 388.960938 298.097656 L 367.476562 298.097656 L 367.476562 301.816406 " fill-opacity="1" fill-rule="nonzero"/><path fill="#cccccc" d="M 312.246094 286.195312 L 305.214844 286.195312 L 305.214844 282.484375 L 312.246094 282.484375 L 312.246094 286.195312 " fill-opacity="1" fill-rule="nonzero"/><path fill="#cccccc" d="M 375.328125 286.195312 L 361.738281 286.195312 L 361.738281 282.484375 L 375.328125 282.484375 L 375.328125 286.195312 " fill-opacity="1" fill-rule="nonzero"/><path fill="#cccccc" d="M 404.648438 286.195312 L 391.058594 286.195312 L 391.058594 282.484375 L 404.648438 282.484375 L 404.648438 286.195312 " fill-opacity="1" fill-rule="nonzero"/><path fill="#cccccc" d="M 389.292969 286.195312 L 377.128906 286.195312 L 377.128906 282.484375 L 389.292969 282.484375 L 389.292969 286.195312 " fill-opacity="1" fill-rule="nonzero"/><path fill="#cccccc" d="M 359.6875 286.195312 L 354.5625 286.195312 L 354.5625 282.484375 L 359.6875 282.484375 L 359.6875 286.195312 " fill-opacity="1" fill-rule="nonzero"/><path fill="#cccccc" d="M 352.667969 286.195312 L 314.382812 286.195312 L 314.382812 282.484375 L 352.667969 282.484375 L 352.667969 286.195312 " fill-opacity="1" fill-rule="nonzero"/><path fill="#a4d957" d="M 520.183594 262.980469 L 417.835938 262.980469 L 417.835938 244.828125 L 520.183594 244.828125 L 520.183594 262.980469 " fill-opacity="1" fill-rule="nonzero"/><path fill="#999999" d="M 520.183594 311.113281 L 417.835938 311.113281 L 417.835938 305.351562 L 520.183594 305.351562 L 520.183594 311.113281 " fill-opacity="1" fill-rule="nonzero"/><path fill="#cccccc" d="M 437.511719 302.332031 L 417.835938 302.332031 L 417.835938 298.621094 L 437.511719 298.621094 L 437.511719 302.332031 " fill-opacity="1" fill-rule="nonzero"/><path fill="#cccccc" d="M 486.644531 302.332031 L 478.484375 302.332031 L 478.484375 298.621094 L 486.644531 298.621094 L 486.644531 302.332031 " fill-opacity="1" fill-rule="nonzero"/><path fill="#cccccc" d="M 476.605469 302.332031 L 440.488281 302.332031 L 440.488281 298.621094 L 476.605469 298.621094 L 476.605469 302.332031 " fill-opacity="1" fill-rule="nonzero"/><path fill="#cccccc" d="M 497.691406 270.582031 L 517.367188 270.582031 L 517.367188 266.867188 L 497.691406 266.867188 L 497.691406 270.582031 " fill-opacity="1" fill-rule="nonzero"/><path fill="#cccccc" d="M 448.554688 270.582031 L 456.71875 270.582031 L 456.71875 266.867188 L 448.554688 266.867188 L 448.554688 270.582031 " fill-opacity="1" fill-rule="nonzero"/><path fill="#cccccc" d="M 417.835938 270.582031 L 425.996094 270.582031 L 425.996094 266.867188 L 417.835938 266.867188 L 417.835938 270.582031 " fill-opacity="1" fill-rule="nonzero"/><path fill="#cccccc" d="M 427.308594 270.582031 L 446.917969 270.582031 L 446.917969 266.867188 L 427.308594 266.867188 L 427.308594 270.582031 " fill-opacity="1" fill-rule="nonzero"/><path fill="#cccccc" d="M 458.597656 270.582031 L 494.714844 270.582031 L 494.714844 266.867188 L 458.597656 266.867188 L 458.597656 270.582031 " fill-opacity="1" fill-rule="nonzero"/><path fill="#cccccc" d="M 431.734375 286.457031 L 417.835938 286.457031 L 417.835938 282.742188 L 431.734375 282.742188 L 431.734375 286.457031 " fill-opacity="1" fill-rule="nonzero"/><path fill="#cccccc" d="M 495.800781 286.457031 L 475.21875 286.457031 L 475.21875 282.742188 L 495.800781 282.742188 L 495.800781 286.457031 " fill-opacity="1" fill-rule="nonzero"/><path fill="#cccccc" d="M 517.367188 286.457031 L 498.089844 286.457031 L 498.089844 282.742188 L 517.367188 282.742188 L 517.367188 286.457031 " fill-opacity="1" fill-rule="nonzero"/><path fill="#cccccc" d="M 473.902344 286.457031 L 457 286.457031 L 457 282.742188 L 473.902344 282.742188 L 473.902344 286.457031 " fill-opacity="1" fill-rule="nonzero"/><path fill="#cccccc" d="M 455.105469 286.457031 L 433.621094 286.457031 L 433.621094 282.742188 L 455.105469 282.742188 L 455.105469 286.457031 " fill-opacity="1" fill-rule="nonzero"/><path fill="#cccccc" d="M 439.402344 278.519531 L 459.984375 278.519531 L 459.984375 274.804688 L 439.402344 274.804688 L 439.402344 278.519531 " fill-opacity="1" fill-rule="nonzero"/><path fill="#cccccc" d="M 417.835938 278.519531 L 437.113281 278.519531 L 437.113281 274.804688 L 417.835938 274.804688 L 417.835938 278.519531 " fill-opacity="1" fill-rule="nonzero"/><path fill="#cccccc" d="M 461.304688 278.519531 L 478.203125 278.519531 L 478.203125 274.804688 L 461.304688 274.804688 L 461.304688 278.519531 " fill-opacity="1" fill-rule="nonzero"/><path fill="#cccccc" d="M 480.097656 278.519531 L 501.578125 278.519531 L 501.578125 274.804688 L 480.097656 274.804688 L 480.097656 278.519531 " fill-opacity="1" fill-rule="nonzero"/><path fill="#cccccc" d="M 503.015625 278.519531 L 517.195312 278.519531 L 517.195312 274.804688 L 503.015625 274.804688 L 503.015625 278.519531 " fill-opacity="1" fill-rule="nonzero"/><path fill="#cccccc" d="M 424.863281 294.394531 L 417.835938 294.394531 L 417.835938 290.683594 L 424.863281 290.683594 L 424.863281 294.394531 " fill-opacity="1" fill-rule="nonzero"/><path fill="#cccccc" d="M 487.949219 294.394531 L 474.359375 294.394531 L 474.359375 290.683594 L 487.949219 290.683594 L 487.949219 294.394531 " fill-opacity="1" fill-rule="nonzero"/><path fill="#cccccc" d="M 517.265625 294.394531 L 503.679688 294.394531 L 503.679688 290.683594 L 517.265625 290.683594 L 517.265625 294.394531 " fill-opacity="1" fill-rule="nonzero"/><path fill="#cccccc" d="M 501.914062 294.394531 L 489.746094 294.394531 L 489.746094 290.683594 L 501.914062 290.683594 L 501.914062 294.394531 " fill-opacity="1" fill-rule="nonzero"/><path fill="#cccccc" d="M 472.308594 294.394531 L 467.183594 294.394531 L 467.183594 290.683594 L 472.308594 290.683594 L 472.308594 294.394531 " fill-opacity="1" fill-rule="nonzero"/><path fill="#cccccc" d="M 465.289062 294.394531 L 427 294.394531 L 427 290.683594 L 465.289062 290.683594 L 465.289062 294.394531 " fill-opacity="1" fill-rule="nonzero"/><path fill="#a4d957" d="M 332.53125 237.808594 L 79.976562 237.808594 L 79.976562 135.679688 L 332.53125 135.679688 L 332.53125 237.808594 " fill-opacity="1" fill-rule="nonzero"/><path fill="#c8f28a" d="M 208.136719 178.558594 C 208.136719 161.691406 194.46875 148.019531 177.601562 148.019531 C 160.742188 148.019531 147.070312 161.691406 147.070312 178.558594 C 147.070312 195.425781 160.742188 209.097656 177.601562 209.097656 C 194.46875 209.097656 208.136719 195.425781 208.136719 178.558594 Z M 218.125 145.761719 L 209.773438 160.234375 C 212.859375 165.640625 214.625 171.886719 214.625 178.558594 C 214.625 198.9375 198.171875 215.464844 177.824219 215.582031 L 170.820312 227.722656 L 265.433594 227.722656 L 218.125 145.761719 " fill-opacity="1" fill-rule="nonzero"/><path fill="#f59e4a" d="M 520.183594 237.808594 L 340.335938 237.808594 L 340.335938 135.679688 L 520.183594 135.679688 L 520.183594 237.808594 " fill-opacity="1" fill-rule="nonzero"/><path fill="#999999" d="M 520.183594 128.660156 L 79.976562 128.660156 L 79.976562 100.898438 L 520.183594 100.898438 L 520.183594 128.660156 " fill-opacity="1" fill-rule="nonzero"/><path fill="#e6e6e6" d="M 157.457031 123.894531 L 86.09375 123.894531 L 86.09375 105.660156 L 157.457031 105.660156 L 157.457031 123.894531 " fill-opacity="1" fill-rule="nonzero"/><path fill="#cccccc" d="M 246.605469 123.894531 L 175.246094 123.894531 L 175.246094 105.660156 L 246.605469 105.660156 L 246.605469 123.894531 " fill-opacity="1" fill-rule="nonzero"/><path fill="#cccccc" d="M 335.757812 123.894531 L 264.398438 123.894531 L 264.398438 105.660156 L 335.757812 105.660156 L 335.757812 123.894531 " fill-opacity="1" fill-rule="nonzero"/><path fill="#cccccc" d="M 424.910156 123.894531 L 353.550781 123.894531 L 353.550781 105.660156 L 424.910156 105.660156 L 424.910156 123.894531 " fill-opacity="1" fill-rule="nonzero"/><path fill="#cccccc" d="M 514.0625 123.894531 L 442.699219 123.894531 L 442.699219 105.660156 L 514.0625 105.660156 L 514.0625 123.894531 " fill-opacity="1" fill-rule="nonzero"/><path fill="#a4d957" d="M 246.972656 95.976562 L 79.976562 95.976562 L 79.976562 68.214844 L 246.972656 68.214844 L 246.972656 95.976562 " fill-opacity="1" fill-rule="nonzero"/><path fill="#87bec9" d="M 383.578125 95.976562 L 255.03125 95.976562 L 255.03125 68.214844 L 383.578125 68.214844 L 383.578125 95.976562 " fill-opacity="1" fill-rule="nonzero"/><path fill="#a95de3" d="M 520.183594 95.976562 L 391.636719 95.976562 L 391.636719 68.214844 L 520.183594 68.214844 L 520.183594 95.976562 " fill-opacity="1" fill-rule="nonzero"/><path fill="#e5e5e5" d="M 75.855469 318.824219 C 75.855469 326.742188 82.273438 333.164062 90.195312 333.164062 L 509.964844 333.164062 C 517.878906 333.164062 524.300781 326.742188 524.300781 318.824219 L 524.300781 318.1875 L 75.855469 318.1875 L 75.855469 318.824219 " fill-opacity="1" fill-rule="nonzero"/><path fill="#f27264" d="M 506.960938 326.539062 C 507.167969 326.539062 507.34375 326.359375 507.34375 326.152344 L 507.34375 323.074219 C 507.34375 322.863281 507.167969 322.691406 506.960938 322.691406 C 506.746094 322.691406 506.578125 322.863281 506.578125 323.074219 L 506.578125 326.152344 C 506.578125 326.359375 506.746094 326.539062 506.960938 326.539062 Z M 508.425781 323.347656 C 508.242188 323.238281 508.011719 323.292969 507.898438 323.472656 C 507.792969 323.652344 507.847656 323.886719 508.027344 323.996094 C 508.632812 324.371094 508.988281 325.019531 508.988281 325.726562 C 508.988281 326.851562 508.082031 327.761719 506.960938 327.761719 C 505.84375 327.761719 504.925781 326.851562 504.925781 325.726562 C 504.925781 325.019531 505.292969 324.371094 505.898438 323.996094 C 506.078125 323.886719 506.132812 323.652344 506.015625 323.472656 C 505.914062 323.292969 505.675781 323.238281 505.496094 323.347656 C 504.667969 323.863281 504.164062 324.75 504.164062 325.726562 C 504.164062 327.273438 505.421875 328.523438 506.960938 328.523438 C 508.503906 328.523438 509.753906 327.273438 509.753906 325.726562 C 509.753906 324.75 509.261719 323.863281 508.425781 323.347656 " fill-opacity="1" fill-rule="nonzero"/><path fill="#f27264" d="M 304.496094 53.804688 C 304.488281 56.242188 302.5 58.226562 300.0625 58.214844 C 297.625 58.207031 295.644531 56.214844 295.652344 53.777344 C 295.660156 51.339844 297.648438 49.359375 300.085938 49.367188 C 302.523438 49.378906 304.5 51.363281 304.496094 53.804688 " fill-opacity="1" fill-rule="nonzero"/></svg>